999
dxflib 2.2.0.0
  0
SECTION
  2
HEADER
  9
$ACADVER
  1
AC1015
  9
$HANDSEED
  5
FFFF
  9
$DIMASZ
 40
2.5
  9
$PLIMMIN
 10
0.0
 20
0.0
  9
$DIMEXE
 40
1.25
  9
$DIMGAP
 40
0.625
  9
$PLIMMAX
 10
210.0
 20
297.0
  9
$INSUNITS
 70
4
  9
$DIMSTYLE
  2
Standard
  9
$DIMEXO
 40
0.625
  9
$DIMTXT
 40
2.5
  0
ENDSEC
  0
SECTION
  2
TABLES
  0
TABLE
  2
VPORT
  5
8
100
AcDbSymbolTable
 70
1
  0
VPORT
  5
30
100
AcDbSymbolTableRecord
100
AcDbViewportTableRecord
  2
*Active
 70
0
 10
0.0
 20
0.0
 11
1.0
 21
1.0
 12
286.3055555555554861
 22
148.5
 13
0.0
 23
0.0
 14
10.0
 24
10.0
 15
10.0
 25
10.0
 16
0.0
 26
0.0
 36
1.0
 17
0.0
 27
0.0
 37
0.0
 40
297.0
 41
1.92798353909465
 42
50.0
 43
0.0
 44
0.0
 50
0.0
 51
0.0
 71
0
 72
100
 73
1
 74
3
 75
1
 76
1
 77
0
 78
0
281
0
 65
1
110
0.0
120
0.0
130
0.0
111
1.0
121
0.0
131
0.0
112
0.0
122
1.0
132
0.0
 79
0
146
0.0
  0
ENDTAB
  0
TABLE
  2
LTYPE
  5
5
100
AcDbSymbolTable
 70
21
  0
LTYPE
  5
14
100
AcDbSymbolTableRecord
100
AcDbLinetypeTableRecord
  2
ByBlock
 70
0
  3

 72
65
 73
0
 40
0.0
  0
LTYPE
  5
15
100
AcDbSymbolTableRecord
100
AcDbLinetypeTableRecord
  2
ByLayer
 70
0
  3

 72
65
 73
0
 40
0.0
  0
LTYPE
  5
16
100
AcDbSymbolTableRecord
100
AcDbLinetypeTableRecord
  2
CONTINUOUS
 70
0
  3
Solid line
 72
65
 73
0
 40
0.0
  0
LTYPE
  5
31
100
AcDbSymbolTableRecord
100
AcDbLinetypeTableRecord
  2
DOT
 70
0
  3
Dot . . . . . . . . . . . . . . . . . . . . . .
 72
65
 73
2
 40
6.3499999999999996
 49
0.0
 74
0
 49
-6.3499999999999996
 74
0
  0
LTYPE
  5
32
100
AcDbSymbolTableRecord
100
AcDbLinetypeTableRecord
  2
DOT2
 70
0
  3
Dot (.5x) .....................................
 72
65
 73
2
 40
3.1749999999999998
 49
0.0
 74
0
 49
-3.1749999999999998
 74
0
  0
LTYPE
  5
33
100
AcDbSymbolTableRecord
100
AcDbLinetypeTableRecord
  2
DOTX2
 70
0
  3
Dot (2x) .  .  .  .  .  .  .  .  .  .  .  .  .
 72
65
 73
2
 40
12.6999999999999993
 49
0.0
 74
0
 49
-12.6999999999999993
 74
0
  0
LTYPE
  5
34
100
AcDbSymbolTableRecord
100
AcDbLinetypeTableRecord
  2
DASHED
 70
0
  3
Dashed __ __ __ __ __ __ __ __ __ __ __ __ __ _
 72
65
 73
2
 40
19.0500000000000007
 49
12.6999999999999993
 74
0
 49
-6.3499999999999996
 74
0
  0
LTYPE
  5
35
100
AcDbSymbolTableRecord
100
AcDbLinetypeTableRecord
  2
DASHED2
 70
0
  3
Dashed (.5x) _ _ _ _ _ _ _ _ _ _ _ _ _ _ _ _ _
 72
65
 73
2
 40
9.5250000000000004
 49
6.3499999999999996
 74
0
 49
-3.1749999999999998
 74
0
  0
LTYPE
  5
36
100
AcDbSymbolTableRecord
100
AcDbLinetypeTableRecord
  2
DASHEDX2
 70
0
  3
Dashed (2x) ____  ____  ____  ____  ____  ___
 72
65
 73
2
 40
38.1000000000000014
 49
25.3999999999999986
 74
0
 49
-12.6999999999999993
 74
0
  0
LTYPE
  5
37
100
AcDbSymbolTableRecord
100
AcDbLinetypeTableRecord
  2
DASHDOT
 70
0
  3
Dash dot __ . __ . __ . __ . __ . __ . __ . __
 72
65
 73
4
 40
25.3999999999999986
 49
12.6999999999999993
 74
0
 49
-6.3499999999999996
 74
0
 49
0.0
 74
0
 49
-6.3499999999999996
 74
0
  0
LTYPE
  5
38
100
AcDbSymbolTableRecord
100
AcDbLinetypeTableRecord
  2
DASHDOT2
 70
0
  3
Dash dot (.5x) _._._._._._._._._._._._._._._.
 72
65
 73
4
 40
12.6999999999999993
 49
6.3499999999999996
 74
0
 49
-3.1749999999999998
 74
0
 49
0.0
 74
0
 49
-3.1749999999999998
 74
0
  0
LTYPE
  5
39
100
AcDbSymbolTableRecord
100
AcDbLinetypeTableRecord
  2
DASHDOTX2
 70
0
  3
Dash dot (2x) ____  .  ____  .  ____  .  ___
 72
65
 73
4
 40
50.7999999999999972
 49
25.3999999999999986
 74
0
 49
-12.6999999999999993
 74
0
 49
0.0
 74
0
 49
-12.6999999999999993
 74
0
  0
LTYPE
  5
3A
100
AcDbSymbolTableRecord
100
AcDbLinetypeTableRecord
  2
DIVIDE
 70
0
  3
Divide ____ . . ____ . . ____ . . ____ . . ____
 72
65
 73
6
 40
31.75
 49
12.6999999999999993
 74
0
 49
-6.3499999999999996
 74
0
 49
0.0
 74
0
 49
-6.3499999999999996
 74
0
 49
0.0
 74
0
 49
-6.3499999999999996
 74
0
  0
LTYPE
  5
3B
100
AcDbSymbolTableRecord
100
AcDbLinetypeTableRecord
  2
DIVIDE2
 70
0
  3
Divide (.5x) __..__..__..__..__..__..__..__.._
 72
65
 73
6
 40
15.875
 49
6.3499999999999996
 74
0
 49
-3.1749999999999998
 74
0
 49
0.0
 74
0
 49
-3.1749999999999998
 74
0
 49
0.0
 74
0
 49
-3.1749999999999998
 74
0
  0
LTYPE
  5
3C
100
AcDbSymbolTableRecord
100
AcDbLinetypeTableRecord
  2
DIVIDEX2
 70
0
  3
Divide (2x) ________  .  .  ________  .  .  _
 72
65
 73
6
 40
63.5
 49
25.3999999999999986
 74
0
 49
-12.6999999999999993
 74
0
 49
0.0
 74
0
 49
-12.6999999999999993
 74
0
 49
0.0
 74
0
 49
-12.6999999999999993
 74
0
  0
LTYPE
  5
3D
100
AcDbSymbolTableRecord
100
AcDbLinetypeTableRecord
  2
CENTER
 70
0
  3
Center ____ _ ____ _ ____ _ ____ _ ____ _ ____
 72
65
 73
4
 40
50.7999999999999972
 49
31.75
 74
0
 49
-6.3499999999999996
 74
0
 49
6.3499999999999996
 74
0
 49
-6.3499999999999996
 74
0
  0
LTYPE
  5
3E
100
AcDbSymbolTableRecord
100
AcDbLinetypeTableRecord
  2
CENTER2
 70
0
  3
Center (.5x) ___ _ ___ _ ___ _ ___ _ ___ _ ___
 72
65
 73
4
 40
28.5749999999999993
 49
19.0500000000000007
 74
0
 49
-3.1749999999999998
 74
0
 49
3.1749999999999998
 74
0
 49
-3.1749999999999998
 74
0
  0
LTYPE
  5
3F
100
AcDbSymbolTableRecord
100
AcDbLinetypeTableRecord
  2
CENTERX2
 70
0
  3
Center (2x) ________  __  ________  __  _____
 72
65
 73
4
 40
101.5999999999999943
 49
63.5
 74
0
 49
-12.6999999999999993
 74
0
 49
12.6999999999999993
 74
0
 49
-12.6999999999999993
 74
0
  0
LTYPE
  5
40
100
AcDbSymbolTableRecord
100
AcDbLinetypeTableRecord
  2
BORDER
 70
0
  3
Border __ __ . __ __ . __ __ . __ __ . __ __ .
 72
65
 73
6
 40
44.4500000000000028
 49
12.6999999999999993
 74
0
 49
-6.3499999999999996
 74
0
 49
12.6999999999999993
 74
0
 49
-6.3499999999999996
 74
0
 49
0.0
 74
0
 49
-6.3499999999999996
 74
0
  0
LTYPE
  5
41
100
AcDbSymbolTableRecord
100
AcDbLinetypeTableRecord
  2
BORDER2
 70
0
  3
Border (.5x) __.__.__.__.__.__.__.__.__.__.__.
 72
65
 73
6
 40
22.2250000000000014
 49
6.3499999999999996
 74
0
 49
-3.1749999999999998
 74
0
 49
6.3499999999999996
 74
0
 49
-3.1749999999999998
 74
0
 49
0.0
 74
0
 49
-3.1749999999999998
 74
0
  0
LTYPE
  5
42
100
AcDbSymbolTableRecord
100
AcDbLinetypeTableRecord
  2
BORDERX2
 70
0
  3
Border (2x) ____  ____  .  ____  ____  .  ___
 72
65
 73
6
 40
88.9000000000000057
 49
25.3999999999999986
 74
0
 49
-12.6999999999999993
 74
0
 49
25.3999999999999986
 74
0
 49
-12.6999999999999993
 74
0
 49
0.0
 74
0
 49
-12.6999999999999993
 74
0
  0
ENDTAB
  0
TABLE
  2
LAYER
  5
2
100
AcDbSymbolTable
 70
1
  0
LAYER
  5
10
100
AcDbSymbolTableRecord
100
AcDbLayerTableRecord
  2
0
 70
0
 62
7
  6
CONTINUOUS
290
1
370
0
390
F
  0
ENDTAB
  0
TABLE
  2
STYLE
  5
3
100
AcDbSymbolTable
 70
1
  0
STYLE
  5
11
100
AcDbSymbolTableRecord
100
AcDbTextStyleTableRecord
  2
Standard
 70
0
 40
0.0
 41
0.75
 50
0.0
 71
0
 42
2.5
  3
txt
  4

  0
ENDTAB
  0
TABLE
  2
VIEW
  5
6
100
AcDbSymbolTable
 70
0
  0
ENDTAB
  0
TABLE
  2
UCS
  5
7
100
AcDbSymbolTable
 70
0
  0
ENDTAB
  0
TABLE
  2
APPID
  5
9
100
AcDbSymbolTable
 70
1
  0
APPID
  5
12
100
AcDbSymbolTableRecord
100
AcDbRegAppTableRecord
  2
ACAD
 70
0
  0
ENDTAB
  0
TABLE
  2
DIMSTYLE
  5
A
100
AcDbSymbolTable
 70
1
100
AcDbDimStyleTable
 71
0
  0
DIMSTYLE
105
27
100
AcDbSymbolTableRecord
100
AcDbDimStyleTableRecord
  2
Standard
 41
2.5
 42
0.625
 43
3.75
 44
1.25
 70
0
 73
0
 74
0
 77
1
 78
8
140
2.5
141
2.5
143
0.03937007874016
147
0.625
171
3
172
1
271
2
272
2
274
3
278
44
283
0
284
8
340
11
  0
ENDTAB
  0
TABLE
  2
BLOCK_RECORD
  5
1
100
AcDbSymbolTable
 70
1
  0
BLOCK_RECORD
  5
1F
100
AcDbSymbolTableRecord
100
AcDbBlockTableRecord
  2
*Model_Space
340
22
  0
BLOCK_RECORD
  5
1B
100
AcDbSymbolTableRecord
100
AcDbBlockTableRecord
  2
*Paper_Space
340
1E
  0
BLOCK_RECORD
  5
23
100
AcDbSymbolTableRecord
100
AcDbBlockTableRecord
  2
*Paper_Space0
340
26
  0
ENDTAB
  0
ENDSEC
  0
SECTION
  2
BLOCKS
  0
BLOCK
  5
20
100
AcDbEntity
  8
0
100
AcDbBlockBegin
  2
*Model_Space
 70
0
 10
0.0
 20
0.0
 30
0.0
  3
*Model_Space
  1

  0
ENDBLK
  5
21
100
AcDbEntity
  8
0
100
AcDbBlockEnd
  0
BLOCK
  5
1C
100
AcDbEntity
 67
1
  8
0
100
AcDbBlockBegin
  2
*Paper_Space
 70
0
 10
0.0
 20
0.0
 30
0.0
  3
*Paper_Space
  1

  0
ENDBLK
  5
1D
100
AcDbEntity
 67
1
  8
0
100
AcDbBlockEnd
  0
BLOCK
  5
24
100
AcDbEntity
  8
0
100
AcDbBlockBegin
  2
*Paper_Space0
 70
0
 10
0.0
 20
0.0
 30
0.0
  3
*Paper_Space0
  1

  0
ENDBLK
  5
25
100
AcDbEntity
  8
0
100
AcDbBlockEnd
  0
ENDSEC
  0
SECTION
  2
ENTITIES
  0
LINE
  5
43
100
AcDbEntity
100
AcDbLine
  8
0
 62
256
370
-1
  6
ByLayer
 10
0.0
 20
-55.0
 30
0.0
 11
0.0
 21
-44.0
 31
0.0
  0
LINE
  5
44
100
AcDbEntity
100
AcDbLine
  8
0
 62
256
370
-1
  6
ByLayer
 10
0.0
 20
-44.0
 30
0.0
 11
2.149
 21
-44.0
 31
0.0
  0
LINE
  5
45
100
AcDbEntity
100
AcDbLine
  8
0
 62
256
370
-1
  6
ByLayer
 10
2.149
 20
-44.0
 30
0.0
 11
2.4119999999999999
 21
-44.8089999999999975
 31
0.0
  0
LINE
  5
46
100
AcDbEntity
100
AcDbLine
  8
0
 62
256
370
-1
  6
ByLayer
 10
2.4119999999999999
 20
-44.8089999999999975
 30
0.0
 11
3.5880000000000001
 21
-44.8089999999999975
 31
0.0
  0
LINE
  5
47
100
AcDbEntity
100
AcDbLine
  8
0
 62
256
370
-1
  6
ByLayer
 10
3.5880000000000001
 20
-44.8089999999999975
 30
0.0
 11
3.851
 21
-44.0
 31
0.0
  0
LINE
  5
48
100
AcDbEntity
100
AcDbLine
  8
0
 62
256
370
-1
  6
ByLayer
 10
3.851
 20
-44.0
 30
0.0
 11
4.0
 21
-44.0
 31
0.0
  0
LINE
  5
49
100
AcDbEntity
100
AcDbLine
  8
0
 62
256
370
-1
  6
ByLayer
 10
4.0
 20
-44.0
 30
0.0
 11
4.0
 21
-29.0
 31
0.0
  0
LINE
  5
4A
100
AcDbEntity
100
AcDbLine
  8
0
 62
256
370
-1
  6
ByLayer
 10
4.0
 20
-29.0
 30
0.0
 11
3.851
 21
-29.0
 31
0.0
  0
LINE
  5
4B
100
AcDbEntity
100
AcDbLine
  8
0
 62
256
370
-1
  6
ByLayer
 10
3.851
 20
-29.0
 30
0.0
 11
3.9510000000000001
 21
-28.6909999999999989
 31
0.0
  0
LINE
  5
4C
100
AcDbEntity
100
AcDbLine
  8
0
 62
256
370
-1
  6
ByLayer
 10
3.9510000000000001
 20
-28.6909999999999989
 30
0.0
 11
3.0
 21
-28.0
 31
0.0
  0
LINE
  5
4D
100
AcDbEntity
100
AcDbLine
  8
0
 62
256
370
-1
  6
ByLayer
 10
3.0
 20
-28.0
 30
0.0
 11
2.0489999999999999
 21
-28.6909999999999989
 31
0.0
  0
LINE
  5
4E
100
AcDbEntity
100
AcDbLine
  8
0
 62
256
370
-1
  6
ByLayer
 10
2.0489999999999999
 20
-28.6909999999999989
 30
0.0
 11
2.149
 21
-29.0
 31
0.0
  0
LINE
  5
4F
100
AcDbEntity
100
AcDbLine
  8
0
 62
256
370
-1
  6
ByLayer
 10
2.149
 20
-29.0
 30
0.0
 11
0.0
 21
-29.0
 31
0.0
  0
LINE
  5
50
100
AcDbEntity
100
AcDbLine
  8
0
 62
256
370
-1
  6
ByLayer
 10
0.0
 20
-29.0
 30
0.0
 11
0.0
 21
-14.0
 31
0.0
  0
LINE
  5
51
100
AcDbEntity
100
AcDbLine
  8
0
 62
256
370
-1
  6
ByLayer
 10
0.0
 20
-14.0
 30
0.0
 11
29.0
 21
-14.0
 31
0.0
  0
LINE
  5
52
100
AcDbEntity
100
AcDbLine
  8
0
 62
256
370
-1
  6
ByLayer
 10
29.0
 20
-14.0
 30
0.0
 11
29.0
 21
-13.8510000000000009
 31
0.0
  0
LINE
  5
53
100
AcDbEntity
100
AcDbLine
  8
0
 62
256
370
-1
  6
ByLayer
 10
29.0
 20
-13.8510000000000009
 30
0.0
 11
29.3090000000000011
 21
-13.9510000000000005
 31
0.0
  0
LINE
  5
54
100
AcDbEntity
100
AcDbLine
  8
0
 62
256
370
-1
  6
ByLayer
 10
29.3090000000000011
 20
-13.9510000000000005
 30
0.0
 11
30.0
 21
-13.0
 31
0.0
  0
LINE
  5
55
100
AcDbEntity
100
AcDbLine
  8
0
 62
256
370
-1
  6
ByLayer
 10
30.0
 20
-13.0
 30
0.0
 11
29.3090000000000011
 21
-12.0489999999999995
 31
0.0
  0
LINE
  5
56
100
AcDbEntity
100
AcDbLine
  8
0
 62
256
370
-1
  6
ByLayer
 10
29.3090000000000011
 20
-12.0489999999999995
 30
0.0
 11
29.0
 21
-12.1489999999999991
 31
0.0
  0
LINE
  5
57
100
AcDbEntity
100
AcDbLine
  8
0
 62
256
370
-1
  6
ByLayer
 10
29.0
 20
-12.1489999999999991
 30
0.0
 11
29.0
 21
-10.0
 31
0.0
  0
LINE
  5
58
100
AcDbEntity
100
AcDbLine
  8
0
 62
256
370
-1
  6
ByLayer
 10
29.0
 20
-10.0
 30
0.0
 11
44.0
 21
-10.0
 31
0.0
  0
LINE
  5
59
100
AcDbEntity
100
AcDbLine
  8
0
 62
256
370
-1
  6
ByLayer
 10
44.0
 20
-10.0
 30
0.0
 11
44.0
 21
-12.1489999999999991
 31
0.0
  0
LINE
  5
5A
100
AcDbEntity
100
AcDbLine
  8
0
 62
256
370
-1
  6
ByLayer
 10
44.0
 20
-12.1489999999999991
 30
0.0
 11
43.1910000000000025
 21
-12.4120000000000008
 31
0.0
  0
LINE
  5
5B
100
AcDbEntity
100
AcDbLine
  8
0
 62
256
370
-1
  6
ByLayer
 10
43.1910000000000025
 20
-12.4120000000000008
 30
0.0
 11
43.1910000000000025
 21
-13.5879999999999992
 31
0.0
  0
LINE
  5
5C
100
AcDbEntity
100
AcDbLine
  8
0
 62
256
370
-1
  6
ByLayer
 10
43.1910000000000025
 20
-13.5879999999999992
 30
0.0
 11
44.0
 21
-13.8510000000000009
 31
0.0
  0
LINE
  5
5D
100
AcDbEntity
100
AcDbLine
  8
0
 62
256
370
-1
  6
ByLayer
 10
44.0
 20
-13.8510000000000009
 30
0.0
 11
44.0
 21
-14.0
 31
0.0
  0
LINE
  5
5E
100
AcDbEntity
100
AcDbLine
  8
0
 62
256
370
-1
  6
ByLayer
 10
44.0
 20
-14.0
 30
0.0
 11
54.0
 21
-14.0
 31
0.0
  0
LINE
  5
5F
100
AcDbEntity
100
AcDbLine
  8
0
 62
256
370
-1
  6
ByLayer
 10
54.0
 20
-14.0
 30
0.0
 11
54.0
 21
-13.8510000000000009
 31
0.0
  0
LINE
  5
60
100
AcDbEntity
100
AcDbLine
  8
0
 62
256
370
-1
  6
ByLayer
 10
54.0
 20
-13.8510000000000009
 30
0.0
 11
54.3089999999999975
 21
-13.9510000000000005
 31
0.0
  0
LINE
  5
61
100
AcDbEntity
100
AcDbLine
  8
0
 62
256
370
-1
  6
ByLayer
 10
54.3089999999999975
 20
-13.9510000000000005
 30
0.0
 11
55.0
 21
-13.0
 31
0.0
  0
LINE
  5
62
100
AcDbEntity
100
AcDbLine
  8
0
 62
256
370
-1
  6
ByLayer
 10
55.0
 20
-13.0
 30
0.0
 11
54.3089999999999975
 21
-12.0489999999999995
 31
0.0
  0
LINE
  5
63
100
AcDbEntity
100
AcDbLine
  8
0
 62
256
370
-1
  6
ByLayer
 10
54.3089999999999975
 20
-12.0489999999999995
 30
0.0
 11
54.0
 21
-12.1489999999999991
 31
0.0
  0
LINE
  5
64
100
AcDbEntity
100
AcDbLine
  8
0
 62
256
370
-1
  6
ByLayer
 10
54.0
 20
-12.1489999999999991
 30
0.0
 11
54.0
 21
-10.0
 31
0.0
  0
LINE
  5
65
100
AcDbEntity
100
AcDbLine
  8
0
 62
256
370
-1
  6
ByLayer
 10
54.0
 20
-10.0
 30
0.0
 11
69.0
 21
-10.0
 31
0.0
  0
LINE
  5
66
100
AcDbEntity
100
AcDbLine
  8
0
 62
256
370
-1
  6
ByLayer
 10
69.0
 20
-10.0
 30
0.0
 11
69.0
 21
-12.1489999999999991
 31
0.0
  0
LINE
  5
67
100
AcDbEntity
100
AcDbLine
  8
0
 62
256
370
-1
  6
ByLayer
 10
69.0
 20
-12.1489999999999991
 30
0.0
 11
68.1910000000000025
 21
-12.4120000000000008
 31
0.0
  0
LINE
  5
68
100
AcDbEntity
100
AcDbLine
  8
0
 62
256
370
-1
  6
ByLayer
 10
68.1910000000000025
 20
-12.4120000000000008
 30
0.0
 11
68.1910000000000025
 21
-13.5879999999999992
 31
0.0
  0
LINE
  5
69
100
AcDbEntity
100
AcDbLine
  8
0
 62
256
370
-1
  6
ByLayer
 10
68.1910000000000025
 20
-13.5879999999999992
 30
0.0
 11
69.0
 21
-13.8510000000000009
 31
0.0
  0
LINE
  5
6A
100
AcDbEntity
100
AcDbLine
  8
0
 62
256
370
-1
  6
ByLayer
 10
69.0
 20
-13.8510000000000009
 30
0.0
 11
69.0
 21
-14.0
 31
0.0
  0
LINE
  5
6B
100
AcDbEntity
100
AcDbLine
  8
0
 62
256
370
-1
  6
ByLayer
 10
69.0
 20
-14.0
 30
0.0
 11
79.0
 21
-14.0
 31
0.0
  0
LINE
  5
6C
100
AcDbEntity
100
AcDbLine
  8
0
 62
256
370
-1
  6
ByLayer
 10
79.0
 20
-14.0
 30
0.0
 11
79.0
 21
-13.8510000000000009
 31
0.0
  0
LINE
  5
6D
100
AcDbEntity
100
AcDbLine
  8
0
 62
256
370
-1
  6
ByLayer
 10
79.0
 20
-13.8510000000000009
 30
0.0
 11
79.3089999999999975
 21
-13.9510000000000005
 31
0.0
  0
LINE
  5
6E
100
AcDbEntity
100
AcDbLine
  8
0
 62
256
370
-1
  6
ByLayer
 10
79.3089999999999975
 20
-13.9510000000000005
 30
0.0
 11
80.0
 21
-13.0
 31
0.0
  0
LINE
  5
6F
100
AcDbEntity
100
AcDbLine
  8
0
 62
256
370
-1
  6
ByLayer
 10
80.0
 20
-13.0
 30
0.0
 11
79.3089999999999975
 21
-12.0489999999999995
 31
0.0
  0
LINE
  5
70
100
AcDbEntity
100
AcDbLine
  8
0
 62
256
370
-1
  6
ByLayer
 10
79.3089999999999975
 20
-12.0489999999999995
 30
0.0
 11
79.0
 21
-12.1489999999999991
 31
0.0
  0
LINE
  5
71
100
AcDbEntity
100
AcDbLine
  8
0
 62
256
370
-1
  6
ByLayer
 10
79.0
 20
-12.1489999999999991
 30
0.0
 11
79.0
 21
-10.0
 31
0.0
  0
LINE
  5
72
100
AcDbEntity
100
AcDbLine
  8
0
 62
256
370
-1
  6
ByLayer
 10
79.0
 20
-10.0
 30
0.0
 11
94.0
 21
-10.0
 31
0.0
  0
LINE
  5
73
100
AcDbEntity
100
AcDbLine
  8
0
 62
256
370
-1
  6
ByLayer
 10
94.0
 20
-10.0
 30
0.0
 11
94.0
 21
-12.1489999999999991
 31
0.0
  0
LINE
  5
74
100
AcDbEntity
100
AcDbLine
  8
0
 62
256
370
-1
  6
ByLayer
 10
94.0
 20
-12.1489999999999991
 30
0.0
 11
93.1910000000000025
 21
-12.4120000000000008
 31
0.0
  0
LINE
  5
75
100
AcDbEntity
100
AcDbLine
  8
0
 62
256
370
-1
  6
ByLayer
 10
93.1910000000000025
 20
-12.4120000000000008
 30
0.0
 11
93.1910000000000025
 21
-13.5879999999999992
 31
0.0
  0
LINE
  5
76
100
AcDbEntity
100
AcDbLine
  8
0
 62
256
370
-1
  6
ByLayer
 10
93.1910000000000025
 20
-13.5879999999999992
 30
0.0
 11
94.0
 21
-13.8510000000000009
 31
0.0
  0
LINE
  5
77
100
AcDbEntity
100
AcDbLine
  8
0
 62
256
370
-1
  6
ByLayer
 10
94.0
 20
-13.8510000000000009
 30
0.0
 11
94.0
 21
-14.0
 31
0.0
  0
LINE
  5
78
100
AcDbEntity
100
AcDbLine
  8
0
 62
256
370
-1
  6
ByLayer
 10
94.0
 20
-14.0
 30
0.0
 11
119.0
 21
-14.0
 31
0.0
  0
LINE
  5
79
100
AcDbEntity
100
AcDbLine
  8
0
 62
256
370
-1
  6
ByLayer
 10
119.0
 20
-14.0
 30
0.0
 11
119.0
 21
-29.0
 31
0.0
  0
LINE
  5
7A
100
AcDbEntity
100
AcDbLine
  8
0
 62
256
370
-1
  6
ByLayer
 10
119.0
 20
-29.0
 30
0.0
 11
119.1490000000000009
 21
-29.0
 31
0.0
  0
LINE
  5
7B
100
AcDbEntity
100
AcDbLine
  8
0
 62
256
370
-1
  6
ByLayer
 10
119.1490000000000009
 20
-29.0
 30
0.0
 11
119.0490000000000066
 21
-29.3090000000000011
 31
0.0
  0
LINE
  5
7C
100
AcDbEntity
100
AcDbLine
  8
0
 62
256
370
-1
  6
ByLayer
 10
119.0490000000000066
 20
-29.3090000000000011
 30
0.0
 11
120.0
 21
-30.0
 31
0.0
  0
LINE
  5
7D
100
AcDbEntity
100
AcDbLine
  8
0
 62
256
370
-1
  6
ByLayer
 10
120.0
 20
-30.0
 30
0.0
 11
120.9509999999999934
 21
-29.3090000000000011
 31
0.0
  0
LINE
  5
7E
100
AcDbEntity
100
AcDbLine
  8
0
 62
256
370
-1
  6
ByLayer
 10
120.9509999999999934
 20
-29.3090000000000011
 30
0.0
 11
120.8509999999999991
 21
-29.0
 31
0.0
  0
LINE
  5
7F
100
AcDbEntity
100
AcDbLine
  8
0
 62
256
370
-1
  6
ByLayer
 10
120.8509999999999991
 20
-29.0
 30
0.0
 11
123.0
 21
-29.0
 31
0.0
  0
LINE
  5
80
100
AcDbEntity
100
AcDbLine
  8
0
 62
256
370
-1
  6
ByLayer
 10
123.0
 20
-29.0
 30
0.0
 11
123.0
 21
-44.0
 31
0.0
  0
LINE
  5
81
100
AcDbEntity
100
AcDbLine
  8
0
 62
256
370
-1
  6
ByLayer
 10
123.0
 20
-44.0
 30
0.0
 11
120.8509999999999991
 21
-44.0
 31
0.0
  0
LINE
  5
82
100
AcDbEntity
100
AcDbLine
  8
0
 62
256
370
-1
  6
ByLayer
 10
120.8509999999999991
 20
-44.0
 30
0.0
 11
120.5879999999999939
 21
-43.1910000000000025
 31
0.0
  0
LINE
  5
83
100
AcDbEntity
100
AcDbLine
  8
0
 62
256
370
-1
  6
ByLayer
 10
120.5879999999999939
 20
-43.1910000000000025
 30
0.0
 11
119.4120000000000061
 21
-43.1910000000000025
 31
0.0
  0
LINE
  5
84
100
AcDbEntity
100
AcDbLine
  8
0
 62
256
370
-1
  6
ByLayer
 10
119.4120000000000061
 20
-43.1910000000000025
 30
0.0
 11
119.1490000000000009
 21
-44.0
 31
0.0
  0
LINE
  5
85
100
AcDbEntity
100
AcDbLine
  8
0
 62
256
370
-1
  6
ByLayer
 10
119.1490000000000009
 20
-44.0
 30
0.0
 11
119.0
 21
-44.0
 31
0.0
  0
LINE
  5
86
100
AcDbEntity
100
AcDbLine
  8
0
 62
256
370
-1
  6
ByLayer
 10
119.0
 20
-44.0
 30
0.0
 11
119.0
 21
-55.0
 31
0.0
  0
LINE
  5
87
100
AcDbEntity
100
AcDbLine
  8
0
 62
256
370
-1
  6
ByLayer
 10
119.0
 20
-55.0
 30
0.0
 11
0.0
 21
-55.0
 31
0.0
  0
LINE
  5
88
100
AcDbEntity
100
AcDbLine
  8
0
 62
256
370
-1
  6
ByLayer
 10
0.0
 20
0.0
 30
0.0
 11
0.0
 21
19.0
 31
0.0
  0
LINE
  5
89
100
AcDbEntity
100
AcDbLine
  8
0
 62
256
370
-1
  6
ByLayer
 10
0.0
 20
19.0
 30
0.0
 11
2.149
 21
19.0
 31
0.0
  0
LINE
  5
8A
100
AcDbEntity
100
AcDbLine
  8
0
 62
256
370
-1
  6
ByLayer
 10
2.149
 20
19.0
 30
0.0
 11
2.4119999999999999
 21
18.1909999999999989
 31
0.0
  0
LINE
  5
8B
100
AcDbEntity
100
AcDbLine
  8
0
 62
256
370
-1
  6
ByLayer
 10
2.4119999999999999
 20
18.1909999999999989
 30
0.0
 11
3.5880000000000001
 21
18.1909999999999989
 31
0.0
  0
LINE
  5
8C
100
AcDbEntity
100
AcDbLine
  8
0
 62
256
370
-1
  6
ByLayer
 10
3.5880000000000001
 20
18.1909999999999989
 30
0.0
 11
3.851
 21
19.0
 31
0.0
  0
LINE
  5
8D
100
AcDbEntity
100
AcDbLine
  8
0
 62
256
370
-1
  6
ByLayer
 10
3.851
 20
19.0
 30
0.0
 11
4.0
 21
19.0
 31
0.0
  0
LINE
  5
8E
100
AcDbEntity
100
AcDbLine
  8
0
 62
256
370
-1
  6
ByLayer
 10
4.0
 20
19.0
 30
0.0
 11
4.0
 21
34.0
 31
0.0
  0
LINE
  5
8F
100
AcDbEntity
100
AcDbLine
  8
0
 62
256
370
-1
  6
ByLayer
 10
4.0
 20
34.0
 30
0.0
 11
3.851
 21
34.0
 31
0.0
  0
LINE
  5
90
100
AcDbEntity
100
AcDbLine
  8
0
 62
256
370
-1
  6
ByLayer
 10
3.851
 20
34.0
 30
0.0
 11
3.9510000000000001
 21
34.3089999999999975
 31
0.0
  0
LINE
  5
91
100
AcDbEntity
100
AcDbLine
  8
0
 62
256
370
-1
  6
ByLayer
 10
3.9510000000000001
 20
34.3089999999999975
 30
0.0
 11
3.0
 21
35.0
 31
0.0
  0
LINE
  5
92
100
AcDbEntity
100
AcDbLine
  8
0
 62
256
370
-1
  6
ByLayer
 10
3.5880000000000001
 20
43.1910000000000025
 30
0.0
 11
3.851
 21
44.0
 31
0.0
  0
LINE
  5
93
100
AcDbEntity
100
AcDbLine
  8
0
 62
256
370
-1
  6
ByLayer
 10
3.851
 20
44.0
 30
0.0
 11
4.0
 21
44.0
 31
0.0
  0
LINE
  5
94
100
AcDbEntity
100
AcDbLine
  8
0
 62
256
370
-1
  6
ByLayer
 10
4.0
 20
44.0
 30
0.0
 11
4.0
 21
59.0
 31
0.0
  0
LINE
  5
95
100
AcDbEntity
100
AcDbLine
  8
0
 62
256
370
-1
  6
ByLayer
 10
4.0
 20
59.0
 30
0.0
 11
3.851
 21
59.0
 31
0.0
  0
LINE
  5
96
100
AcDbEntity
100
AcDbLine
  8
0
 62
256
370
-1
  6
ByLayer
 10
3.851
 20
59.0
 30
0.0
 11
3.9510000000000001
 21
59.3089999999999975
 31
0.0
  0
LINE
  5
97
100
AcDbEntity
100
AcDbLine
  8
0
 62
256
370
-1
  6
ByLayer
 10
3.9510000000000001
 20
59.3089999999999975
 30
0.0
 11
3.0
 21
60.0
 31
0.0
  0
LINE
  5
98
100
AcDbEntity
100
AcDbLine
  8
0
 62
256
370
-1
  6
ByLayer
 10
3.0
 20
60.0
 30
0.0
 11
2.0489999999999999
 21
59.3089999999999975
 31
0.0
  0
LINE
  5
99
100
AcDbEntity
100
AcDbLine
  8
0
 62
256
370
-1
  6
ByLayer
 10
2.0489999999999999
 20
59.3089999999999975
 30
0.0
 11
2.149
 21
59.0
 31
0.0
  0
LINE
  5
9A
100
AcDbEntity
100
AcDbLine
  8
0
 62
256
370
-1
  6
ByLayer
 10
2.149
 20
59.0
 30
0.0
 11
0.0
 21
59.0
 31
0.0
  0
LINE
  5
9B
100
AcDbEntity
100
AcDbLine
  8
0
 62
256
370
-1
  6
ByLayer
 10
0.0
 20
59.0
 30
0.0
 11
0.0
 21
69.0
 31
0.0
  0
LINE
  5
9C
100
AcDbEntity
100
AcDbLine
  8
0
 62
256
370
-1
  6
ByLayer
 10
0.0
 20
69.0
 30
0.0
 11
2.149
 21
69.0
 31
0.0
  0
LINE
  5
9D
100
AcDbEntity
100
AcDbLine
  8
0
 62
256
370
-1
  6
ByLayer
 10
2.149
 20
69.0
 30
0.0
 11
2.4119999999999999
 21
68.1910000000000025
 31
0.0
  0
LINE
  5
9E
100
AcDbEntity
100
AcDbLine
  8
0
 62
256
370
-1
  6
ByLayer
 10
2.4119999999999999
 20
68.1910000000000025
 30
0.0
 11
3.5880000000000001
 21
68.1910000000000025
 31
0.0
  0
LINE
  5
9F
100
AcDbEntity
100
AcDbLine
  8
0
 62
256
370
-1
  6
ByLayer
 10
3.5880000000000001
 20
68.1910000000000025
 30
0.0
 11
3.851
 21
69.0
 31
0.0
  0
LINE
  5
A0
100
AcDbEntity
100
AcDbLine
  8
0
 62
256
370
-1
  6
ByLayer
 10
3.851
 20
69.0
 30
0.0
 11
4.0
 21
69.0
 31
0.0
  0
LINE
  5
A1
100
AcDbEntity
100
AcDbLine
  8
0
 62
256
370
-1
  6
ByLayer
 10
4.0
 20
69.0
 30
0.0
 11
4.0
 21
84.0
 31
0.0
  0
LINE
  5
A2
100
AcDbEntity
100
AcDbLine
  8
0
 62
256
370
-1
  6
ByLayer
 10
4.0
 20
84.0
 30
0.0
 11
3.851
 21
84.0
 31
0.0
  0
LINE
  5
A3
100
AcDbEntity
100
AcDbLine
  8
0
 62
256
370
-1
  6
ByLayer
 10
3.851
 20
84.0
 30
0.0
 11
3.9510000000000001
 21
84.3089999999999975
 31
0.0
  0
LINE
  5
A4
100
AcDbEntity
100
AcDbLine
  8
0
 62
256
370
-1
  6
ByLayer
 10
3.9510000000000001
 20
84.3089999999999975
 30
0.0
 11
3.0
 21
85.0
 31
0.0
  0
LINE
  5
A5
100
AcDbEntity
100
AcDbLine
  8
0
 62
256
370
-1
  6
ByLayer
 10
3.0
 20
85.0
 30
0.0
 11
2.0489999999999999
 21
84.3089999999999975
 31
0.0
  0
LINE
  5
A6
100
AcDbEntity
100
AcDbLine
  8
0
 62
256
370
-1
  6
ByLayer
 10
2.0489999999999999
 20
84.3089999999999975
 30
0.0
 11
2.149
 21
84.0
 31
0.0
  0
LINE
  5
A7
100
AcDbEntity
100
AcDbLine
  8
0
 62
256
370
-1
  6
ByLayer
 10
2.149
 20
84.0
 30
0.0
 11
0.0
 21
84.0
 31
0.0
  0
LINE
  5
A8
100
AcDbEntity
100
AcDbLine
  8
0
 62
256
370
-1
  6
ByLayer
 10
0.0
 20
84.0
 30
0.0
 11
0.0
 21
94.0
 31
0.0
  0
LINE
  5
A9
100
AcDbEntity
100
AcDbLine
  8
0
 62
256
370
-1
  6
ByLayer
 10
0.0
 20
94.0
 30
0.0
 11
2.149
 21
94.0
 31
0.0
  0
LINE
  5
AA
100
AcDbEntity
100
AcDbLine
  8
0
 62
256
370
-1
  6
ByLayer
 10
2.149
 20
94.0
 30
0.0
 11
2.4119999999999999
 21
93.1910000000000025
 31
0.0
  0
LINE
  5
AB
100
AcDbEntity
100
AcDbLine
  8
0
 62
256
370
-1
  6
ByLayer
 10
2.4119999999999999
 20
93.1910000000000025
 30
0.0
 11
3.5880000000000001
 21
93.1910000000000025
 31
0.0
  0
LINE
  5
AC
100
AcDbEntity
100
AcDbLine
  8
0
 62
256
370
-1
  6
ByLayer
 10
3.5880000000000001
 20
93.1910000000000025
 30
0.0
 11
3.851
 21
94.0
 31
0.0
  0
LINE
  5
AD
100
AcDbEntity
100
AcDbLine
  8
0
 62
256
370
-1
  6
ByLayer
 10
3.851
 20
94.0
 30
0.0
 11
4.0
 21
94.0
 31
0.0
  0
LINE
  5
AE
100
AcDbEntity
100
AcDbLine
  8
0
 62
256
370
-1
  6
ByLayer
 10
4.0
 20
94.0
 30
0.0
 11
4.0
 21
109.0
 31
0.0
  0
LINE
  5
AF
100
AcDbEntity
100
AcDbLine
  8
0
 62
256
370
-1
  6
ByLayer
 10
3.5880000000000001
 20
118.1910000000000025
 30
0.0
 11
3.851
 21
119.0
 31
0.0
  0
LINE
  5
B0
100
AcDbEntity
100
AcDbLine
  8
0
 62
256
370
-1
  6
ByLayer
 10
3.851
 20
119.0
 30
0.0
 11
4.0
 21
119.0
 31
0.0
  0
LINE
  5
B1
100
AcDbEntity
100
AcDbLine
  8
0
 62
256
370
-1
  6
ByLayer
 10
4.0
 20
119.0
 30
0.0
 11
4.0
 21
134.0
 31
0.0
  0
LINE
  5
B2
100
AcDbEntity
100
AcDbLine
  8
0
 62
256
370
-1
  6
ByLayer
 10
4.0
 20
134.0
 30
0.0
 11
3.851
 21
134.0
 31
0.0
  0
LINE
  5
B3
100
AcDbEntity
100
AcDbLine
  8
0
 62
256
370
-1
  6
ByLayer
 10
3.851
 20
134.0
 30
0.0
 11
3.9510000000000001
 21
134.3089999999999975
 31
0.0
  0
LINE
  5
B4
100
AcDbEntity
100
AcDbLine
  8
0
 62
256
370
-1
  6
ByLayer
 10
3.9510000000000001
 20
134.3089999999999975
 30
0.0
 11
3.0
 21
135.0
 31
0.0
  0
LINE
  5
B5
100
AcDbEntity
100
AcDbLine
  8
0
 62
256
370
-1
  6
ByLayer
 10
3.0
 20
135.0
 30
0.0
 11
2.0489999999999999
 21
134.3089999999999975
 31
0.0
  0
LINE
  5
B6
100
AcDbEntity
100
AcDbLine
  8
0
 62
256
370
-1
  6
ByLayer
 10
2.0489999999999999
 20
134.3089999999999975
 30
0.0
 11
2.149
 21
134.0
 31
0.0
  0
LINE
  5
B7
100
AcDbEntity
100
AcDbLine
  8
0
 62
256
370
-1
  6
ByLayer
 10
2.149
 20
134.0
 30
0.0
 11
0.0
 21
134.0
 31
0.0
  0
LINE
  5
B8
100
AcDbEntity
100
AcDbLine
  8
0
 62
256
370
-1
  6
ByLayer
 10
0.0
 20
134.0
 30
0.0
 11
0.0
 21
153.0
 31
0.0
  0
LINE
  5
B9
100
AcDbEntity
100
AcDbLine
  8
0
 62
256
370
-1
  6
ByLayer
 10
0.0
 20
153.0
 30
0.0
 11
29.0
 21
153.0
 31
0.0
  0
LINE
  5
BA
100
AcDbEntity
100
AcDbLine
  8
0
 62
256
370
-1
  6
ByLayer
 10
29.0
 20
153.0
 30
0.0
 11
29.0
 21
150.8509999999999991
 31
0.0
  0
LINE
  5
BB
100
AcDbEntity
100
AcDbLine
  8
0
 62
256
370
-1
  6
ByLayer
 10
29.0
 20
150.8509999999999991
 30
0.0
 11
28.1909999999999989
 21
150.5879999999999939
 31
0.0
  0
LINE
  5
BC
100
AcDbEntity
100
AcDbLine
  8
0
 62
256
370
-1
  6
ByLayer
 10
28.1909999999999989
 20
150.5879999999999939
 30
0.0
 11
28.1909999999999989
 21
149.4120000000000061
 31
0.0
  0
LINE
  5
BD
100
AcDbEntity
100
AcDbLine
  8
0
 62
256
370
-1
  6
ByLayer
 10
28.1909999999999989
 20
149.4120000000000061
 30
0.0
 11
29.0
 21
149.1490000000000009
 31
0.0
  0
LINE
  5
BE
100
AcDbEntity
100
AcDbLine
  8
0
 62
256
370
-1
  6
ByLayer
 10
29.0
 20
149.1490000000000009
 30
0.0
 11
29.0
 21
149.0
 31
0.0
  0
LINE
  5
BF
100
AcDbEntity
100
AcDbLine
  8
0
 62
256
370
-1
  6
ByLayer
 10
29.0
 20
149.0
 30
0.0
 11
44.0
 21
149.0
 31
0.0
  0
LINE
  5
C0
100
AcDbEntity
100
AcDbLine
  8
0
 62
256
370
-1
  6
ByLayer
 10
44.0
 20
149.0
 30
0.0
 11
44.0
 21
149.1490000000000009
 31
0.0
  0
LINE
  5
C1
100
AcDbEntity
100
AcDbLine
  8
0
 62
256
370
-1
  6
ByLayer
 10
44.0
 20
149.1490000000000009
 30
0.0
 11
44.3089999999999975
 21
149.0490000000000066
 31
0.0
  0
LINE
  5
C2
100
AcDbEntity
100
AcDbLine
  8
0
 62
256
370
-1
  6
ByLayer
 10
44.3089999999999975
 20
149.0490000000000066
 30
0.0
 11
45.0
 21
150.0
 31
0.0
  0
LINE
  5
C3
100
AcDbEntity
100
AcDbLine
  8
0
 62
256
370
-1
  6
ByLayer
 10
45.0
 20
150.0
 30
0.0
 11
44.3089999999999975
 21
150.9509999999999934
 31
0.0
  0
LINE
  5
C4
100
AcDbEntity
100
AcDbLine
  8
0
 62
256
370
-1
  6
ByLayer
 10
44.3089999999999975
 20
150.9509999999999934
 30
0.0
 11
44.0
 21
150.8509999999999991
 31
0.0
  0
LINE
  5
C5
100
AcDbEntity
100
AcDbLine
  8
0
 62
256
370
-1
  6
ByLayer
 10
44.0
 20
150.8509999999999991
 30
0.0
 11
44.0
 21
153.0
 31
0.0
  0
LINE
  5
C6
100
AcDbEntity
100
AcDbLine
  8
0
 62
256
370
-1
  6
ByLayer
 10
44.0
 20
153.0
 30
0.0
 11
54.0
 21
153.0
 31
0.0
  0
LINE
  5
C7
100
AcDbEntity
100
AcDbLine
  8
0
 62
256
370
-1
  6
ByLayer
 10
54.0
 20
153.0
 30
0.0
 11
54.0
 21
150.8509999999999991
 31
0.0
  0
LINE
  5
C8
100
AcDbEntity
100
AcDbLine
  8
0
 62
256
370
-1
  6
ByLayer
 10
54.0
 20
150.8509999999999991
 30
0.0
 11
53.1910000000000025
 21
150.5879999999999939
 31
0.0
  0
LINE
  5
C9
100
AcDbEntity
100
AcDbLine
  8
0
 62
256
370
-1
  6
ByLayer
 10
53.1910000000000025
 20
150.5879999999999939
 30
0.0
 11
53.1910000000000025
 21
149.4120000000000061
 31
0.0
  0
LINE
  5
CA
100
AcDbEntity
100
AcDbLine
  8
0
 62
256
370
-1
  6
ByLayer
 10
53.1910000000000025
 20
149.4120000000000061
 30
0.0
 11
54.0
 21
149.1490000000000009
 31
0.0
  0
LINE
  5
CB
100
AcDbEntity
100
AcDbLine
  8
0
 62
256
370
-1
  6
ByLayer
 10
54.0
 20
149.1490000000000009
 30
0.0
 11
54.0
 21
149.0
 31
0.0
  0
LINE
  5
CC
100
AcDbEntity
100
AcDbLine
  8
0
 62
256
370
-1
  6
ByLayer
 10
54.0
 20
149.0
 30
0.0
 11
69.0
 21
149.0
 31
0.0
  0
LINE
  5
CD
100
AcDbEntity
100
AcDbLine
  8
0
 62
256
370
-1
  6
ByLayer
 10
69.0
 20
149.0
 30
0.0
 11
69.0
 21
149.1490000000000009
 31
0.0
  0
LINE
  5
CE
100
AcDbEntity
100
AcDbLine
  8
0
 62
256
370
-1
  6
ByLayer
 10
69.0
 20
149.1490000000000009
 30
0.0
 11
69.3089999999999975
 21
149.0490000000000066
 31
0.0
  0
LINE
  5
CF
100
AcDbEntity
100
AcDbLine
  8
0
 62
256
370
-1
  6
ByLayer
 10
69.3089999999999975
 20
149.0490000000000066
 30
0.0
 11
70.0
 21
150.0
 31
0.0
  0
LINE
  5
D0
100
AcDbEntity
100
AcDbLine
  8
0
 62
256
370
-1
  6
ByLayer
 10
70.0
 20
150.0
 30
0.0
 11
69.3089999999999975
 21
150.9509999999999934
 31
0.0
  0
LINE
  5
D1
100
AcDbEntity
100
AcDbLine
  8
0
 62
256
370
-1
  6
ByLayer
 10
69.3089999999999975
 20
150.9509999999999934
 30
0.0
 11
69.0
 21
150.8509999999999991
 31
0.0
  0
LINE
  5
D2
100
AcDbEntity
100
AcDbLine
  8
0
 62
256
370
-1
  6
ByLayer
 10
69.0
 20
150.8509999999999991
 30
0.0
 11
69.0
 21
153.0
 31
0.0
  0
LINE
  5
D3
100
AcDbEntity
100
AcDbLine
  8
0
 62
256
370
-1
  6
ByLayer
 10
69.0
 20
153.0
 30
0.0
 11
79.0
 21
153.0
 31
0.0
  0
LINE
  5
D4
100
AcDbEntity
100
AcDbLine
  8
0
 62
256
370
-1
  6
ByLayer
 10
79.0
 20
153.0
 30
0.0
 11
79.0
 21
150.8509999999999991
 31
0.0
  0
LINE
  5
D5
100
AcDbEntity
100
AcDbLine
  8
0
 62
256
370
-1
  6
ByLayer
 10
79.0
 20
150.8509999999999991
 30
0.0
 11
78.1910000000000025
 21
150.5879999999999939
 31
0.0
  0
LINE
  5
D6
100
AcDbEntity
100
AcDbLine
  8
0
 62
256
370
-1
  6
ByLayer
 10
78.1910000000000025
 20
150.5879999999999939
 30
0.0
 11
78.1910000000000025
 21
149.4120000000000061
 31
0.0
  0
LINE
  5
D7
100
AcDbEntity
100
AcDbLine
  8
0
 62
256
370
-1
  6
ByLayer
 10
78.1910000000000025
 20
149.4120000000000061
 30
0.0
 11
79.0
 21
149.1490000000000009
 31
0.0
  0
LINE
  5
D8
100
AcDbEntity
100
AcDbLine
  8
0
 62
256
370
-1
  6
ByLayer
 10
79.0
 20
149.1490000000000009
 30
0.0
 11
79.0
 21
149.0
 31
0.0
  0
LINE
  5
D9
100
AcDbEntity
100
AcDbLine
  8
0
 62
256
370
-1
  6
ByLayer
 10
79.0
 20
149.0
 30
0.0
 11
94.0
 21
149.0
 31
0.0
  0
LINE
  5
DA
100
AcDbEntity
100
AcDbLine
  8
0
 62
256
370
-1
  6
ByLayer
 10
94.0
 20
149.0
 30
0.0
 11
94.0
 21
149.1490000000000009
 31
0.0
  0
LINE
  5
DB
100
AcDbEntity
100
AcDbLine
  8
0
 62
256
370
-1
  6
ByLayer
 10
94.0
 20
149.1490000000000009
 30
0.0
 11
94.3089999999999975
 21
149.0490000000000066
 31
0.0
  0
LINE
  5
DC
100
AcDbEntity
100
AcDbLine
  8
0
 62
256
370
-1
  6
ByLayer
 10
94.3089999999999975
 20
149.0490000000000066
 30
0.0
 11
95.0
 21
150.0
 31
0.0
  0
LINE
  5
DD
100
AcDbEntity
100
AcDbLine
  8
0
 62
256
370
-1
  6
ByLayer
 10
95.0
 20
150.0
 30
0.0
 11
94.3089999999999975
 21
150.9509999999999934
 31
0.0
  0
LINE
  5
DE
100
AcDbEntity
100
AcDbLine
  8
0
 62
256
370
-1
  6
ByLayer
 10
94.3089999999999975
 20
150.9509999999999934
 30
0.0
 11
94.0
 21
150.8509999999999991
 31
0.0
  0
LINE
  5
DF
100
AcDbEntity
100
AcDbLine
  8
0
 62
256
370
-1
  6
ByLayer
 10
94.0
 20
150.8509999999999991
 30
0.0
 11
94.0
 21
153.0
 31
0.0
  0
LINE
  5
E0
100
AcDbEntity
100
AcDbLine
  8
0
 62
256
370
-1
  6
ByLayer
 10
94.0
 20
153.0
 30
0.0
 11
123.0
 21
153.0
 31
0.0
  0
LINE
  5
E1
100
AcDbEntity
100
AcDbLine
  8
0
 62
256
370
-1
  6
ByLayer
 10
123.0
 20
153.0
 30
0.0
 11
123.0
 21
134.0
 31
0.0
  0
LINE
  5
E2
100
AcDbEntity
100
AcDbLine
  8
0
 62
256
370
-1
  6
ByLayer
 10
123.0
 20
134.0
 30
0.0
 11
120.8509999999999991
 21
134.0
 31
0.0
  0
LINE
  5
E3
100
AcDbEntity
100
AcDbLine
  8
0
 62
256
370
-1
  6
ByLayer
 10
120.8509999999999991
 20
134.0
 30
0.0
 11
120.5879999999999939
 21
134.8089999999999975
 31
0.0
  0
LINE
  5
E4
100
AcDbEntity
100
AcDbLine
  8
0
 62
256
370
-1
  6
ByLayer
 10
120.5879999999999939
 20
134.8089999999999975
 30
0.0
 11
119.4120000000000061
 21
134.8089999999999975
 31
0.0
  0
LINE
  5
E5
100
AcDbEntity
100
AcDbLine
  8
0
 62
256
370
-1
  6
ByLayer
 10
119.4120000000000061
 20
134.8089999999999975
 30
0.0
 11
119.1490000000000009
 21
134.0
 31
0.0
  0
LINE
  5
E6
100
AcDbEntity
100
AcDbLine
  8
0
 62
256
370
-1
  6
ByLayer
 10
119.1490000000000009
 20
134.0
 30
0.0
 11
119.0
 21
134.0
 31
0.0
  0
LINE
  5
E7
100
AcDbEntity
100
AcDbLine
  8
0
 62
256
370
-1
  6
ByLayer
 10
119.0
 20
134.0
 30
0.0
 11
119.0
 21
119.0
 31
0.0
  0
LINE
  5
E8
100
AcDbEntity
100
AcDbLine
  8
0
 62
256
370
-1
  6
ByLayer
 10
119.0
 20
119.0
 30
0.0
 11
119.1490000000000009
 21
119.0
 31
0.0
  0
LINE
  5
E9
100
AcDbEntity
100
AcDbLine
  8
0
 62
256
370
-1
  6
ByLayer
 10
119.1490000000000009
 20
119.0
 30
0.0
 11
119.0490000000000066
 21
118.6910000000000025
 31
0.0
  0
LINE
  5
EA
100
AcDbEntity
100
AcDbLine
  8
0
 62
256
370
-1
  6
ByLayer
 10
119.0490000000000066
 20
118.6910000000000025
 30
0.0
 11
120.0
 21
118.0
 31
0.0
  0
LINE
  5
EB
100
AcDbEntity
100
AcDbLine
  8
0
 62
256
370
-1
  6
ByLayer
 10
120.0
 20
118.0
 30
0.0
 11
120.9509999999999934
 21
118.6910000000000025
 31
0.0
  0
LINE
  5
EC
100
AcDbEntity
100
AcDbLine
  8
0
 62
256
370
-1
  6
ByLayer
 10
120.9509999999999934
 20
118.6910000000000025
 30
0.0
 11
120.8509999999999991
 21
119.0
 31
0.0
  0
LINE
  5
ED
100
AcDbEntity
100
AcDbLine
  8
0
 62
256
370
-1
  6
ByLayer
 10
120.8509999999999991
 20
119.0
 30
0.0
 11
123.0
 21
119.0
 31
0.0
  0
LINE
  5
EE
100
AcDbEntity
100
AcDbLine
  8
0
 62
256
370
-1
  6
ByLayer
 10
123.0
 20
119.0
 30
0.0
 11
123.0
 21
109.0
 31
0.0
  0
LINE
  5
EF
100
AcDbEntity
100
AcDbLine
  8
0
 62
256
370
-1
  6
ByLayer
 10
123.0
 20
109.0
 30
0.0
 11
120.8509999999999991
 21
109.0
 31
0.0
  0
LINE
  5
F0
100
AcDbEntity
100
AcDbLine
  8
0
 62
256
370
-1
  6
ByLayer
 10
120.8509999999999991
 20
109.0
 30
0.0
 11
120.5879999999999939
 21
109.8089999999999975
 31
0.0
  0
LINE
  5
F1
100
AcDbEntity
100
AcDbLine
  8
0
 62
256
370
-1
  6
ByLayer
 10
120.5879999999999939
 20
109.8089999999999975
 30
0.0
 11
119.4120000000000061
 21
109.8089999999999975
 31
0.0
  0
LINE
  5
F2
100
AcDbEntity
100
AcDbLine
  8
0
 62
256
370
-1
  6
ByLayer
 10
119.4120000000000061
 20
109.8089999999999975
 30
0.0
 11
119.1490000000000009
 21
109.0
 31
0.0
  0
LINE
  5
F3
100
AcDbEntity
100
AcDbLine
  8
0
 62
256
370
-1
  6
ByLayer
 10
119.1490000000000009
 20
109.0
 30
0.0
 11
119.0
 21
109.0
 31
0.0
  0
LINE
  5
F4
100
AcDbEntity
100
AcDbLine
  8
0
 62
256
370
-1
  6
ByLayer
 10
119.0
 20
109.0
 30
0.0
 11
119.0
 21
94.0
 31
0.0
  0
LINE
  5
F5
100
AcDbEntity
100
AcDbLine
  8
0
 62
256
370
-1
  6
ByLayer
 10
119.0
 20
94.0
 30
0.0
 11
119.1490000000000009
 21
94.0
 31
0.0
  0
LINE
  5
F6
100
AcDbEntity
100
AcDbLine
  8
0
 62
256
370
-1
  6
ByLayer
 10
119.1490000000000009
 20
94.0
 30
0.0
 11
119.0490000000000066
 21
93.6910000000000025
 31
0.0
  0
LINE
  5
F7
100
AcDbEntity
100
AcDbLine
  8
0
 62
256
370
-1
  6
ByLayer
 10
119.0490000000000066
 20
93.6910000000000025
 30
0.0
 11
120.0
 21
93.0
 31
0.0
  0
LINE
  5
F8
100
AcDbEntity
100
AcDbLine
  8
0
 62
256
370
-1
  6
ByLayer
 10
120.0
 20
93.0
 30
0.0
 11
120.9509999999999934
 21
93.6910000000000025
 31
0.0
  0
LINE
  5
F9
100
AcDbEntity
100
AcDbLine
  8
0
 62
256
370
-1
  6
ByLayer
 10
120.9509999999999934
 20
93.6910000000000025
 30
0.0
 11
120.8509999999999991
 21
94.0
 31
0.0
  0
LINE
  5
FA
100
AcDbEntity
100
AcDbLine
  8
0
 62
256
370
-1
  6
ByLayer
 10
120.8509999999999991
 20
94.0
 30
0.0
 11
123.0
 21
94.0
 31
0.0
  0
LINE
  5
FB
100
AcDbEntity
100
AcDbLine
  8
0
 62
256
370
-1
  6
ByLayer
 10
123.0
 20
94.0
 30
0.0
 11
123.0
 21
84.0
 31
0.0
  0
LINE
  5
FC
100
AcDbEntity
100
AcDbLine
  8
0
 62
256
370
-1
  6
ByLayer
 10
123.0
 20
84.0
 30
0.0
 11
120.8509999999999991
 21
84.0
 31
0.0
  0
LINE
  5
FD
100
AcDbEntity
100
AcDbLine
  8
0
 62
256
370
-1
  6
ByLayer
 10
120.8509999999999991
 20
84.0
 30
0.0
 11
120.5879999999999939
 21
84.8089999999999975
 31
0.0
  0
LINE
  5
FE
100
AcDbEntity
100
AcDbLine
  8
0
 62
256
370
-1
  6
ByLayer
 10
120.5879999999999939
 20
84.8089999999999975
 30
0.0
 11
119.4120000000000061
 21
84.8089999999999975
 31
0.0
  0
LINE
  5
FF
100
AcDbEntity
100
AcDbLine
  8
0
 62
256
370
-1
  6
ByLayer
 10
119.4120000000000061
 20
84.8089999999999975
 30
0.0
 11
119.1490000000000009
 21
84.0
 31
0.0
  0
LINE
  5
100
100
AcDbEntity
100
AcDbLine
  8
0
 62
256
370
-1
  6
ByLayer
 10
119.1490000000000009
 20
84.0
 30
0.0
 11
119.0
 21
84.0
 31
0.0
  0
LINE
  5
101
100
AcDbEntity
100
AcDbLine
  8
0
 62
256
370
-1
  6
ByLayer
 10
119.0
 20
84.0
 30
0.0
 11
119.0
 21
69.0
 31
0.0
  0
LINE
  5
102
100
AcDbEntity
100
AcDbLine
  8
0
 62
256
370
-1
  6
ByLayer
 10
119.0
 20
69.0
 30
0.0
 11
119.1490000000000009
 21
69.0
 31
0.0
  0
LINE
  5
103
100
AcDbEntity
100
AcDbLine
  8
0
 62
256
370
-1
  6
ByLayer
 10
119.1490000000000009
 20
69.0
 30
0.0
 11
119.0490000000000066
 21
68.6910000000000025
 31
0.0
  0
LINE
  5
104
100
AcDbEntity
100
AcDbLine
  8
0
 62
256
370
-1
  6
ByLayer
 10
119.0490000000000066
 20
68.6910000000000025
 30
0.0
 11
120.0
 21
68.0
 31
0.0
  0
LINE
  5
105
100
AcDbEntity
100
AcDbLine
  8
0
 62
256
370
-1
  6
ByLayer
 10
120.0
 20
68.0
 30
0.0
 11
120.9509999999999934
 21
68.6910000000000025
 31
0.0
  0
LINE
  5
106
100
AcDbEntity
100
AcDbLine
  8
0
 62
256
370
-1
  6
ByLayer
 10
120.9509999999999934
 20
68.6910000000000025
 30
0.0
 11
120.8509999999999991
 21
69.0
 31
0.0
  0
LINE
  5
107
100
AcDbEntity
100
AcDbLine
  8
0
 62
256
370
-1
  6
ByLayer
 10
120.8509999999999991
 20
69.0
 30
0.0
 11
123.0
 21
69.0
 31
0.0
  0
LINE
  5
108
100
AcDbEntity
100
AcDbLine
  8
0
 62
256
370
-1
  6
ByLayer
 10
123.0
 20
69.0
 30
0.0
 11
123.0
 21
59.0
 31
0.0
  0
LINE
  5
109
100
AcDbEntity
100
AcDbLine
  8
0
 62
256
370
-1
  6
ByLayer
 10
123.0
 20
59.0
 30
0.0
 11
120.8509999999999991
 21
59.0
 31
0.0
  0
LINE
  5
10A
100
AcDbEntity
100
AcDbLine
  8
0
 62
256
370
-1
  6
ByLayer
 10
120.8509999999999991
 20
59.0
 30
0.0
 11
120.5879999999999939
 21
59.8089999999999975
 31
0.0
  0
LINE
  5
10B
100
AcDbEntity
100
AcDbLine
  8
0
 62
256
370
-1
  6
ByLayer
 10
120.5879999999999939
 20
59.8089999999999975
 30
0.0
 11
119.4120000000000061
 21
59.8089999999999975
 31
0.0
  0
LINE
  5
10C
100
AcDbEntity
100
AcDbLine
  8
0
 62
256
370
-1
  6
ByLayer
 10
119.4120000000000061
 20
59.8089999999999975
 30
0.0
 11
119.1490000000000009
 21
59.0
 31
0.0
  0
LINE
  5
10D
100
AcDbEntity
100
AcDbLine
  8
0
 62
256
370
-1
  6
ByLayer
 10
119.1490000000000009
 20
59.0
 30
0.0
 11
119.0
 21
59.0
 31
0.0
  0
LINE
  5
10E
100
AcDbEntity
100
AcDbLine
  8
0
 62
256
370
-1
  6
ByLayer
 10
119.0
 20
59.0
 30
0.0
 11
119.0
 21
44.0
 31
0.0
  0
LINE
  5
10F
100
AcDbEntity
100
AcDbLine
  8
0
 62
256
370
-1
  6
ByLayer
 10
119.0
 20
44.0
 30
0.0
 11
119.1490000000000009
 21
44.0
 31
0.0
  0
LINE
  5
110
100
AcDbEntity
100
AcDbLine
  8
0
 62
256
370
-1
  6
ByLayer
 10
119.1490000000000009
 20
44.0
 30
0.0
 11
119.0490000000000066
 21
43.6910000000000025
 31
0.0
  0
LINE
  5
111
100
AcDbEntity
100
AcDbLine
  8
0
 62
256
370
-1
  6
ByLayer
 10
119.0490000000000066
 20
43.6910000000000025
 30
0.0
 11
120.0
 21
43.0
 31
0.0
  0
LINE
  5
112
100
AcDbEntity
100
AcDbLine
  8
0
 62
256
370
-1
  6
ByLayer
 10
120.0
 20
43.0
 30
0.0
 11
120.9509999999999934
 21
43.6910000000000025
 31
0.0
  0
LINE
  5
113
100
AcDbEntity
100
AcDbLine
  8
0
 62
256
370
-1
  6
ByLayer
 10
120.9509999999999934
 20
43.6910000000000025
 30
0.0
 11
120.8509999999999991
 21
44.0
 31
0.0
  0
LINE
  5
114
100
AcDbEntity
100
AcDbLine
  8
0
 62
256
370
-1
  6
ByLayer
 10
120.8509999999999991
 20
44.0
 30
0.0
 11
123.0
 21
44.0
 31
0.0
  0
LINE
  5
115
100
AcDbEntity
100
AcDbLine
  8
0
 62
256
370
-1
  6
ByLayer
 10
123.0
 20
44.0
 30
0.0
 11
123.0
 21
34.0
 31
0.0
  0
LINE
  5
116
100
AcDbEntity
100
AcDbLine
  8
0
 62
256
370
-1
  6
ByLayer
 10
123.0
 20
34.0
 30
0.0
 11
120.8509999999999991
 21
34.0
 31
0.0
  0
LINE
  5
117
100
AcDbEntity
100
AcDbLine
  8
0
 62
256
370
-1
  6
ByLayer
 10
120.8509999999999991
 20
34.0
 30
0.0
 11
120.5879999999999939
 21
34.8089999999999975
 31
0.0
  0
LINE
  5
118
100
AcDbEntity
100
AcDbLine
  8
0
 62
256
370
-1
  6
ByLayer
 10
120.5879999999999939
 20
34.8089999999999975
 30
0.0
 11
119.4120000000000061
 21
34.8089999999999975
 31
0.0
  0
LINE
  5
119
100
AcDbEntity
100
AcDbLine
  8
0
 62
256
370
-1
  6
ByLayer
 10
119.4120000000000061
 20
34.8089999999999975
 30
0.0
 11
119.1490000000000009
 21
34.0
 31
0.0
  0
LINE
  5
11A
100
AcDbEntity
100
AcDbLine
  8
0
 62
256
370
-1
  6
ByLayer
 10
119.1490000000000009
 20
34.0
 30
0.0
 11
119.0
 21
34.0
 31
0.0
  0
LINE
  5
11B
100
AcDbEntity
100
AcDbLine
  8
0
 62
256
370
-1
  6
ByLayer
 10
119.0
 20
34.0
 30
0.0
 11
119.0
 21
19.0
 31
0.0
  0
LINE
  5
11C
100
AcDbEntity
100
AcDbLine
  8
0
 62
256
370
-1
  6
ByLayer
 10
119.0
 20
19.0
 30
0.0
 11
119.1490000000000009
 21
19.0
 31
0.0
  0
LINE
  5
11D
100
AcDbEntity
100
AcDbLine
  8
0
 62
256
370
-1
  6
ByLayer
 10
119.1490000000000009
 20
19.0
 30
0.0
 11
119.0490000000000066
 21
18.6909999999999989
 31
0.0
  0
LINE
  5
11E
100
AcDbEntity
100
AcDbLine
  8
0
 62
256
370
-1
  6
ByLayer
 10
119.0490000000000066
 20
18.6909999999999989
 30
0.0
 11
120.0
 21
18.0
 31
0.0
  0
LINE
  5
11F
100
AcDbEntity
100
AcDbLine
  8
0
 62
256
370
-1
  6
ByLayer
 10
120.0
 20
18.0
 30
0.0
 11
120.9509999999999934
 21
18.6909999999999989
 31
0.0
  0
LINE
  5
120
100
AcDbEntity
100
AcDbLine
  8
0
 62
256
370
-1
  6
ByLayer
 10
120.9509999999999934
 20
18.6909999999999989
 30
0.0
 11
120.8509999999999991
 21
19.0
 31
0.0
  0
LINE
  5
121
100
AcDbEntity
100
AcDbLine
  8
0
 62
256
370
-1
  6
ByLayer
 10
120.8509999999999991
 20
19.0
 30
0.0
 11
123.0
 21
19.0
 31
0.0
  0
LINE
  5
122
100
AcDbEntity
100
AcDbLine
  8
0
 62
256
370
-1
  6
ByLayer
 10
123.0
 20
19.0
 30
0.0
 11
123.0
 21
0.0
 31
0.0
  0
LINE
  5
123
100
AcDbEntity
100
AcDbLine
  8
0
 62
256
370
-1
  6
ByLayer
 10
123.0
 20
0.0
 30
0.0
 11
94.0
 21
0.0
 31
0.0
  0
LINE
  5
124
100
AcDbEntity
100
AcDbLine
  8
0
 62
256
370
-1
  6
ByLayer
 10
94.0
 20
0.0
 30
0.0
 11
94.0
 21
2.149
 31
0.0
  0
LINE
  5
125
100
AcDbEntity
100
AcDbLine
  8
0
 62
256
370
-1
  6
ByLayer
 10
94.0
 20
2.149
 30
0.0
 11
94.8089999999999975
 21
2.4119999999999999
 31
0.0
  0
LINE
  5
126
100
AcDbEntity
100
AcDbLine
  8
0
 62
256
370
-1
  6
ByLayer
 10
94.8089999999999975
 20
2.4119999999999999
 30
0.0
 11
94.8089999999999975
 21
3.5880000000000001
 31
0.0
  0
LINE
  5
127
100
AcDbEntity
100
AcDbLine
  8
0
 62
256
370
-1
  6
ByLayer
 10
94.8089999999999975
 20
3.5880000000000001
 30
0.0
 11
94.0
 21
3.851
 31
0.0
  0
LINE
  5
128
100
AcDbEntity
100
AcDbLine
  8
0
 62
256
370
-1
  6
ByLayer
 10
94.0
 20
3.851
 30
0.0
 11
94.0
 21
4.0
 31
0.0
  0
LINE
  5
129
100
AcDbEntity
100
AcDbLine
  8
0
 62
256
370
-1
  6
ByLayer
 10
94.0
 20
4.0
 30
0.0
 11
79.0
 21
4.0
 31
0.0
  0
LINE
  5
12A
100
AcDbEntity
100
AcDbLine
  8
0
 62
256
370
-1
  6
ByLayer
 10
79.0
 20
4.0
 30
0.0
 11
79.0
 21
3.851
 31
0.0
  0
LINE
  5
12B
100
AcDbEntity
100
AcDbLine
  8
0
 62
256
370
-1
  6
ByLayer
 10
79.0
 20
3.851
 30
0.0
 11
78.6910000000000025
 21
3.9510000000000001
 31
0.0
  0
LINE
  5
12C
100
AcDbEntity
100
AcDbLine
  8
0
 62
256
370
-1
  6
ByLayer
 10
78.6910000000000025
 20
3.9510000000000001
 30
0.0
 11
78.0
 21
3.0
 31
0.0
  0
LINE
  5
12D
100
AcDbEntity
100
AcDbLine
  8
0
 62
256
370
-1
  6
ByLayer
 10
78.0
 20
3.0
 30
0.0
 11
78.6910000000000025
 21
2.0489999999999999
 31
0.0
  0
LINE
  5
12E
100
AcDbEntity
100
AcDbLine
  8
0
 62
256
370
-1
  6
ByLayer
 10
78.6910000000000025
 20
2.0489999999999999
 30
0.0
 11
79.0
 21
2.149
 31
0.0
  0
LINE
  5
12F
100
AcDbEntity
100
AcDbLine
  8
0
 62
256
370
-1
  6
ByLayer
 10
79.0
 20
2.149
 30
0.0
 11
79.0
 21
0.0
 31
0.0
  0
LINE
  5
130
100
AcDbEntity
100
AcDbLine
  8
0
 62
256
370
-1
  6
ByLayer
 10
79.0
 20
0.0
 30
0.0
 11
69.0
 21
0.0
 31
0.0
  0
LINE
  5
131
100
AcDbEntity
100
AcDbLine
  8
0
 62
256
370
-1
  6
ByLayer
 10
69.0
 20
0.0
 30
0.0
 11
69.0
 21
2.149
 31
0.0
  0
LINE
  5
132
100
AcDbEntity
100
AcDbLine
  8
0
 62
256
370
-1
  6
ByLayer
 10
69.0
 20
2.149
 30
0.0
 11
69.8089999999999975
 21
2.4119999999999999
 31
0.0
  0
LINE
  5
133
100
AcDbEntity
100
AcDbLine
  8
0
 62
256
370
-1
  6
ByLayer
 10
69.8089999999999975
 20
2.4119999999999999
 30
0.0
 11
69.8089999999999975
 21
3.5880000000000001
 31
0.0
  0
LINE
  5
134
100
AcDbEntity
100
AcDbLine
  8
0
 62
256
370
-1
  6
ByLayer
 10
69.8089999999999975
 20
3.5880000000000001
 30
0.0
 11
69.0
 21
3.851
 31
0.0
  0
LINE
  5
135
100
AcDbEntity
100
AcDbLine
  8
0
 62
256
370
-1
  6
ByLayer
 10
69.0
 20
3.851
 30
0.0
 11
69.0
 21
4.0
 31
0.0
  0
LINE
  5
136
100
AcDbEntity
100
AcDbLine
  8
0
 62
256
370
-1
  6
ByLayer
 10
69.0
 20
4.0
 30
0.0
 11
54.0
 21
4.0
 31
0.0
  0
LINE
  5
137
100
AcDbEntity
100
AcDbLine
  8
0
 62
256
370
-1
  6
ByLayer
 10
54.0
 20
4.0
 30
0.0
 11
54.0
 21
3.851
 31
0.0
  0
LINE
  5
138
100
AcDbEntity
100
AcDbLine
  8
0
 62
256
370
-1
  6
ByLayer
 10
54.0
 20
3.851
 30
0.0
 11
53.6910000000000025
 21
3.9510000000000001
 31
0.0
  0
LINE
  5
139
100
AcDbEntity
100
AcDbLine
  8
0
 62
256
370
-1
  6
ByLayer
 10
53.6910000000000025
 20
3.9510000000000001
 30
0.0
 11
53.0
 21
3.0
 31
0.0
  0
LINE
  5
13A
100
AcDbEntity
100
AcDbLine
  8
0
 62
256
370
-1
  6
ByLayer
 10
53.0
 20
3.0
 30
0.0
 11
53.6910000000000025
 21
2.0489999999999999
 31
0.0
  0
LINE
  5
13B
100
AcDbEntity
100
AcDbLine
  8
0
 62
256
370
-1
  6
ByLayer
 10
53.6910000000000025
 20
2.0489999999999999
 30
0.0
 11
54.0
 21
2.149
 31
0.0
  0
LINE
  5
13C
100
AcDbEntity
100
AcDbLine
  8
0
 62
256
370
-1
  6
ByLayer
 10
54.0
 20
2.149
 30
0.0
 11
54.0
 21
0.0
 31
0.0
  0
LINE
  5
13D
100
AcDbEntity
100
AcDbLine
  8
0
 62
256
370
-1
  6
ByLayer
 10
54.0
 20
0.0
 30
0.0
 11
44.0
 21
0.0
 31
0.0
  0
LINE
  5
13E
100
AcDbEntity
100
AcDbLine
  8
0
 62
256
370
-1
  6
ByLayer
 10
44.0
 20
0.0
 30
0.0
 11
44.0
 21
2.149
 31
0.0
  0
LINE
  5
13F
100
AcDbEntity
100
AcDbLine
  8
0
 62
256
370
-1
  6
ByLayer
 10
44.0
 20
2.149
 30
0.0
 11
44.8089999999999975
 21
2.4119999999999999
 31
0.0
  0
LINE
  5
140
100
AcDbEntity
100
AcDbLine
  8
0
 62
256
370
-1
  6
ByLayer
 10
44.8089999999999975
 20
2.4119999999999999
 30
0.0
 11
44.8089999999999975
 21
3.5880000000000001
 31
0.0
  0
LINE
  5
141
100
AcDbEntity
100
AcDbLine
  8
0
 62
256
370
-1
  6
ByLayer
 10
44.8089999999999975
 20
3.5880000000000001
 30
0.0
 11
44.0
 21
3.851
 31
0.0
  0
LINE
  5
142
100
AcDbEntity
100
AcDbLine
  8
0
 62
256
370
-1
  6
ByLayer
 10
44.0
 20
3.851
 30
0.0
 11
44.0
 21
4.0
 31
0.0
  0
LINE
  5
143
100
AcDbEntity
100
AcDbLine
  8
0
 62
256
370
-1
  6
ByLayer
 10
44.0
 20
4.0
 30
0.0
 11
29.0
 21
4.0
 31
0.0
  0
LINE
  5
144
100
AcDbEntity
100
AcDbLine
  8
0
 62
256
370
-1
  6
ByLayer
 10
29.0
 20
4.0
 30
0.0
 11
29.0
 21
3.851
 31
0.0
  0
LINE
  5
145
100
AcDbEntity
100
AcDbLine
  8
0
 62
256
370
-1
  6
ByLayer
 10
29.0
 20
3.851
 30
0.0
 11
28.6909999999999989
 21
3.9510000000000001
 31
0.0
  0
LINE
  5
146
100
AcDbEntity
100
AcDbLine
  8
0
 62
256
370
-1
  6
ByLayer
 10
28.6909999999999989
 20
3.9510000000000001
 30
0.0
 11
28.0
 21
3.0
 31
0.0
  0
LINE
  5
147
100
AcDbEntity
100
AcDbLine
  8
0
 62
256
370
-1
  6
ByLayer
 10
28.0
 20
3.0
 30
0.0
 11
28.6909999999999989
 21
2.0489999999999999
 31
0.0
  0
LINE
  5
148
100
AcDbEntity
100
AcDbLine
  8
0
 62
256
370
-1
  6
ByLayer
 10
28.6909999999999989
 20
2.0489999999999999
 30
0.0
 11
29.0
 21
2.149
 31
0.0
  0
LINE
  5
149
100
AcDbEntity
100
AcDbLine
  8
0
 62
256
370
-1
  6
ByLayer
 10
29.0
 20
2.149
 30
0.0
 11
29.0
 21
0.0
 31
0.0
  0
LINE
  5
14A
100
AcDbEntity
100
AcDbLine
  8
0
 62
256
370
-1
  6
ByLayer
 10
29.0
 20
0.0
 30
0.0
 11
0.0
 21
0.0
 31
0.0
  0
LINE
  5
14B
100
AcDbEntity
100
AcDbLine
  8
0
 62
256
370
-1
  6
ByLayer
 10
0.0
 20
34.0
 30
0.0
 11
2.149
 21
34.0
 31
0.0
  0
LINE
  5
14C
100
AcDbEntity
100
AcDbLine
  8
0
 62
256
370
-1
  6
ByLayer
 10
2.149
 20
34.0
 30
0.0
 11
2.0489999999999999
 21
34.3089999999999975
 31
0.0
  0
LINE
  5
14D
100
AcDbEntity
100
AcDbLine
  8
0
 62
256
370
-1
  6
ByLayer
 10
2.0489999999999999
 20
34.3089999999999975
 30
0.0
 11
3.0
 21
35.0
 31
0.0
  0
LINE
  5
14E
100
AcDbEntity
100
AcDbLine
  8
0
 62
256
370
-1
  6
ByLayer
 10
3.0
 20
35.0
 30
0.0
 11
3.9510000000000001
 21
34.3089999999999975
 31
0.0
  0
LINE
  5
14F
100
AcDbEntity
100
AcDbLine
  8
0
 62
256
370
-1
  6
ByLayer
 10
3.9510000000000001
 20
34.3089999999999975
 30
0.0
 11
3.851
 21
34.0
 31
0.0
  0
LINE
  5
150
100
AcDbEntity
100
AcDbLine
  8
0
 62
256
370
-1
  6
ByLayer
 10
3.851
 20
34.0
 30
0.0
 11
4.0
 21
34.0
 31
0.0
  0
LINE
  5
151
100
AcDbEntity
100
AcDbLine
  8
0
 62
256
370
-1
  6
ByLayer
 10
4.0
 20
34.0
 30
0.0
 11
4.0
 21
19.0
 31
0.0
  0
LINE
  5
152
100
AcDbEntity
100
AcDbLine
  8
0
 62
256
370
-1
  6
ByLayer
 10
4.0
 20
19.0
 30
0.0
 11
3.851
 21
19.0
 31
0.0
  0
LINE
  5
153
100
AcDbEntity
100
AcDbLine
  8
0
 62
256
370
-1
  6
ByLayer
 10
3.851
 20
19.0
 30
0.0
 11
3.5880000000000001
 21
18.1909999999999989
 31
0.0
  0
LINE
  5
154
100
AcDbEntity
100
AcDbLine
  8
0
 62
256
370
-1
  6
ByLayer
 10
3.5880000000000001
 20
18.1909999999999989
 30
0.0
 11
2.4119999999999999
 21
18.1909999999999989
 31
0.0
  0
LINE
  5
155
100
AcDbEntity
100
AcDbLine
  8
0
 62
256
370
-1
  6
ByLayer
 10
2.4119999999999999
 20
18.1909999999999989
 30
0.0
 11
2.149
 21
19.0
 31
0.0
  0
LINE
  5
156
100
AcDbEntity
100
AcDbLine
  8
0
 62
256
370
-1
  6
ByLayer
 10
2.149
 20
19.0
 30
0.0
 11
0.0
 21
19.0
 31
0.0
  0
LINE
  5
157
100
AcDbEntity
100
AcDbLine
  8
0
 62
256
370
-1
  6
ByLayer
 10
0.0
 20
34.0
 30
0.0
 11
0.0
 21
44.0
 31
0.0
  0
LINE
  5
158
100
AcDbEntity
100
AcDbLine
  8
0
 62
256
370
-1
  6
ByLayer
 10
0.0
 20
44.0
 30
0.0
 11
2.149
 21
44.0
 31
0.0
  0
LINE
  5
159
100
AcDbEntity
100
AcDbLine
  8
0
 62
256
370
-1
  6
ByLayer
 10
2.149
 20
44.0
 30
0.0
 11
2.4119999999999999
 21
43.1910000000000025
 31
0.0
  0
LINE
  5
15A
100
AcDbEntity
100
AcDbLine
  8
0
 62
256
370
-1
  6
ByLayer
 10
2.4119999999999999
 20
43.1910000000000025
 30
0.0
 11
3.5880000000000001
 21
43.1910000000000025
 31
0.0
  0
LINE
  5
15B
100
AcDbEntity
100
AcDbLine
  8
0
 62
256
370
-1
  6
ByLayer
 10
3.0
 20
35.0
 30
0.0
 11
2.0489999999999999
 21
34.3089999999999975
 31
0.0
  0
LINE
  5
15C
100
AcDbEntity
100
AcDbLine
  8
0
 62
256
370
-1
  6
ByLayer
 10
2.0489999999999999
 20
34.3089999999999975
 30
0.0
 11
2.149
 21
34.0
 31
0.0
  0
LINE
  5
15D
100
AcDbEntity
100
AcDbLine
  8
0
 62
256
370
-1
  6
ByLayer
 10
2.149
 20
34.0
 30
0.0
 11
0.0
 21
34.0
 31
0.0
  0
LINE
  5
15E
100
AcDbEntity
100
AcDbLine
  8
0
 62
256
370
-1
  6
ByLayer
 10
0.0
 20
59.0
 30
0.0
 11
2.149
 21
59.0
 31
0.0
  0
LINE
  5
15F
100
AcDbEntity
100
AcDbLine
  8
0
 62
256
370
-1
  6
ByLayer
 10
2.149
 20
59.0
 30
0.0
 11
2.0489999999999999
 21
59.3089999999999975
 31
0.0
  0
LINE
  5
160
100
AcDbEntity
100
AcDbLine
  8
0
 62
256
370
-1
  6
ByLayer
 10
2.0489999999999999
 20
59.3089999999999975
 30
0.0
 11
3.0
 21
60.0
 31
0.0
  0
LINE
  5
161
100
AcDbEntity
100
AcDbLine
  8
0
 62
256
370
-1
  6
ByLayer
 10
3.0
 20
60.0
 30
0.0
 11
3.9510000000000001
 21
59.3089999999999975
 31
0.0
  0
LINE
  5
162
100
AcDbEntity
100
AcDbLine
  8
0
 62
256
370
-1
  6
ByLayer
 10
3.9510000000000001
 20
59.3089999999999975
 30
0.0
 11
3.851
 21
59.0
 31
0.0
  0
LINE
  5
163
100
AcDbEntity
100
AcDbLine
  8
0
 62
256
370
-1
  6
ByLayer
 10
3.851
 20
59.0
 30
0.0
 11
4.0
 21
59.0
 31
0.0
  0
LINE
  5
164
100
AcDbEntity
100
AcDbLine
  8
0
 62
256
370
-1
  6
ByLayer
 10
4.0
 20
59.0
 30
0.0
 11
4.0
 21
44.0
 31
0.0
  0
LINE
  5
165
100
AcDbEntity
100
AcDbLine
  8
0
 62
256
370
-1
  6
ByLayer
 10
4.0
 20
44.0
 30
0.0
 11
3.851
 21
44.0
 31
0.0
  0
LINE
  5
166
100
AcDbEntity
100
AcDbLine
  8
0
 62
256
370
-1
  6
ByLayer
 10
3.851
 20
44.0
 30
0.0
 11
3.5880000000000001
 21
43.1910000000000025
 31
0.0
  0
LINE
  5
167
100
AcDbEntity
100
AcDbLine
  8
0
 62
256
370
-1
  6
ByLayer
 10
3.5880000000000001
 20
43.1910000000000025
 30
0.0
 11
2.4119999999999999
 21
43.1910000000000025
 31
0.0
  0
LINE
  5
168
100
AcDbEntity
100
AcDbLine
  8
0
 62
256
370
-1
  6
ByLayer
 10
2.4119999999999999
 20
43.1910000000000025
 30
0.0
 11
2.149
 21
44.0
 31
0.0
  0
LINE
  5
169
100
AcDbEntity
100
AcDbLine
  8
0
 62
256
370
-1
  6
ByLayer
 10
2.149
 20
44.0
 30
0.0
 11
0.0
 21
44.0
 31
0.0
  0
LINE
  5
16A
100
AcDbEntity
100
AcDbLine
  8
0
 62
256
370
-1
  6
ByLayer
 10
0.0
 20
84.0
 30
0.0
 11
2.149
 21
84.0
 31
0.0
  0
LINE
  5
16B
100
AcDbEntity
100
AcDbLine
  8
0
 62
256
370
-1
  6
ByLayer
 10
2.149
 20
84.0
 30
0.0
 11
2.0489999999999999
 21
84.3089999999999975
 31
0.0
  0
LINE
  5
16C
100
AcDbEntity
100
AcDbLine
  8
0
 62
256
370
-1
  6
ByLayer
 10
2.0489999999999999
 20
84.3089999999999975
 30
0.0
 11
3.0
 21
85.0
 31
0.0
  0
LINE
  5
16D
100
AcDbEntity
100
AcDbLine
  8
0
 62
256
370
-1
  6
ByLayer
 10
3.0
 20
85.0
 30
0.0
 11
3.9510000000000001
 21
84.3089999999999975
 31
0.0
  0
LINE
  5
16E
100
AcDbEntity
100
AcDbLine
  8
0
 62
256
370
-1
  6
ByLayer
 10
3.9510000000000001
 20
84.3089999999999975
 30
0.0
 11
3.851
 21
84.0
 31
0.0
  0
LINE
  5
16F
100
AcDbEntity
100
AcDbLine
  8
0
 62
256
370
-1
  6
ByLayer
 10
3.851
 20
84.0
 30
0.0
 11
4.0
 21
84.0
 31
0.0
  0
LINE
  5
170
100
AcDbEntity
100
AcDbLine
  8
0
 62
256
370
-1
  6
ByLayer
 10
4.0
 20
84.0
 30
0.0
 11
4.0
 21
69.0
 31
0.0
  0
LINE
  5
171
100
AcDbEntity
100
AcDbLine
  8
0
 62
256
370
-1
  6
ByLayer
 10
4.0
 20
69.0
 30
0.0
 11
3.851
 21
69.0
 31
0.0
  0
LINE
  5
172
100
AcDbEntity
100
AcDbLine
  8
0
 62
256
370
-1
  6
ByLayer
 10
3.851
 20
69.0
 30
0.0
 11
3.5880000000000001
 21
68.1910000000000025
 31
0.0
  0
LINE
  5
173
100
AcDbEntity
100
AcDbLine
  8
0
 62
256
370
-1
  6
ByLayer
 10
3.5880000000000001
 20
68.1910000000000025
 30
0.0
 11
2.4119999999999999
 21
68.1910000000000025
 31
0.0
  0
LINE
  5
174
100
AcDbEntity
100
AcDbLine
  8
0
 62
256
370
-1
  6
ByLayer
 10
2.4119999999999999
 20
68.1910000000000025
 30
0.0
 11
2.149
 21
69.0
 31
0.0
  0
LINE
  5
175
100
AcDbEntity
100
AcDbLine
  8
0
 62
256
370
-1
  6
ByLayer
 10
2.149
 20
69.0
 30
0.0
 11
0.0
 21
69.0
 31
0.0
  0
LINE
  5
176
100
AcDbEntity
100
AcDbLine
  8
0
 62
256
370
-1
  6
ByLayer
 10
0.0
 20
109.0
 30
0.0
 11
2.149
 21
109.0
 31
0.0
  0
LINE
  5
177
100
AcDbEntity
100
AcDbLine
  8
0
 62
256
370
-1
  6
ByLayer
 10
2.149
 20
109.0
 30
0.0
 11
2.0489999999999999
 21
109.3089999999999975
 31
0.0
  0
LINE
  5
178
100
AcDbEntity
100
AcDbLine
  8
0
 62
256
370
-1
  6
ByLayer
 10
2.0489999999999999
 20
109.3089999999999975
 30
0.0
 11
3.0
 21
110.0
 31
0.0
  0
LINE
  5
179
100
AcDbEntity
100
AcDbLine
  8
0
 62
256
370
-1
  6
ByLayer
 10
3.0
 20
110.0
 30
0.0
 11
3.9510000000000001
 21
109.3089999999999975
 31
0.0
  0
LINE
  5
17A
100
AcDbEntity
100
AcDbLine
  8
0
 62
256
370
-1
  6
ByLayer
 10
3.9510000000000001
 20
109.3089999999999975
 30
0.0
 11
3.851
 21
109.0
 31
0.0
  0
LINE
  5
17B
100
AcDbEntity
100
AcDbLine
  8
0
 62
256
370
-1
  6
ByLayer
 10
3.851
 20
109.0
 30
0.0
 11
4.0
 21
109.0
 31
0.0
  0
LINE
  5
17C
100
AcDbEntity
100
AcDbLine
  8
0
 62
256
370
-1
  6
ByLayer
 10
4.0
 20
109.0
 30
0.0
 11
4.0
 21
94.0
 31
0.0
  0
LINE
  5
17D
100
AcDbEntity
100
AcDbLine
  8
0
 62
256
370
-1
  6
ByLayer
 10
4.0
 20
94.0
 30
0.0
 11
3.851
 21
94.0
 31
0.0
  0
LINE
  5
17E
100
AcDbEntity
100
AcDbLine
  8
0
 62
256
370
-1
  6
ByLayer
 10
3.851
 20
94.0
 30
0.0
 11
3.5880000000000001
 21
93.1910000000000025
 31
0.0
  0
LINE
  5
17F
100
AcDbEntity
100
AcDbLine
  8
0
 62
256
370
-1
  6
ByLayer
 10
3.5880000000000001
 20
93.1910000000000025
 30
0.0
 11
2.4119999999999999
 21
93.1910000000000025
 31
0.0
  0
LINE
  5
180
100
AcDbEntity
100
AcDbLine
  8
0
 62
256
370
-1
  6
ByLayer
 10
2.4119999999999999
 20
93.1910000000000025
 30
0.0
 11
2.149
 21
94.0
 31
0.0
  0
LINE
  5
181
100
AcDbEntity
100
AcDbLine
  8
0
 62
256
370
-1
  6
ByLayer
 10
2.149
 20
94.0
 30
0.0
 11
0.0
 21
94.0
 31
0.0
  0
LINE
  5
182
100
AcDbEntity
100
AcDbLine
  8
0
 62
256
370
-1
  6
ByLayer
 10
0.0
 20
109.0
 30
0.0
 11
0.0
 21
119.0
 31
0.0
  0
LINE
  5
183
100
AcDbEntity
100
AcDbLine
  8
0
 62
256
370
-1
  6
ByLayer
 10
0.0
 20
119.0
 30
0.0
 11
2.149
 21
119.0
 31
0.0
  0
LINE
  5
184
100
AcDbEntity
100
AcDbLine
  8
0
 62
256
370
-1
  6
ByLayer
 10
2.149
 20
119.0
 30
0.0
 11
2.4119999999999999
 21
118.1910000000000025
 31
0.0
  0
LINE
  5
185
100
AcDbEntity
100
AcDbLine
  8
0
 62
256
370
-1
  6
ByLayer
 10
2.4119999999999999
 20
118.1910000000000025
 30
0.0
 11
3.5880000000000001
 21
118.1910000000000025
 31
0.0
  0
LINE
  5
186
100
AcDbEntity
100
AcDbLine
  8
0
 62
256
370
-1
  6
ByLayer
 10
4.0
 20
109.0
 30
0.0
 11
3.851
 21
109.0
 31
0.0
  0
LINE
  5
187
100
AcDbEntity
100
AcDbLine
  8
0
 62
256
370
-1
  6
ByLayer
 10
3.851
 20
109.0
 30
0.0
 11
3.9510000000000001
 21
109.3089999999999975
 31
0.0
  0
LINE
  5
188
100
AcDbEntity
100
AcDbLine
  8
0
 62
256
370
-1
  6
ByLayer
 10
3.9510000000000001
 20
109.3089999999999975
 30
0.0
 11
3.0
 21
110.0
 31
0.0
  0
LINE
  5
189
100
AcDbEntity
100
AcDbLine
  8
0
 62
256
370
-1
  6
ByLayer
 10
3.0
 20
110.0
 30
0.0
 11
2.0489999999999999
 21
109.3089999999999975
 31
0.0
  0
LINE
  5
18A
100
AcDbEntity
100
AcDbLine
  8
0
 62
256
370
-1
  6
ByLayer
 10
2.0489999999999999
 20
109.3089999999999975
 30
0.0
 11
2.149
 21
109.0
 31
0.0
  0
LINE
  5
18B
100
AcDbEntity
100
AcDbLine
  8
0
 62
256
370
-1
  6
ByLayer
 10
2.149
 20
109.0
 30
0.0
 11
0.0
 21
109.0
 31
0.0
  0
LINE
  5
18C
100
AcDbEntity
100
AcDbLine
  8
0
 62
256
370
-1
  6
ByLayer
 10
0.0
 20
134.0
 30
0.0
 11
2.149
 21
134.0
 31
0.0
  0
LINE
  5
18D
100
AcDbEntity
100
AcDbLine
  8
0
 62
256
370
-1
  6
ByLayer
 10
2.149
 20
134.0
 30
0.0
 11
2.0489999999999999
 21
134.3089999999999975
 31
0.0
  0
LINE
  5
18E
100
AcDbEntity
100
AcDbLine
  8
0
 62
256
370
-1
  6
ByLayer
 10
2.0489999999999999
 20
134.3089999999999975
 30
0.0
 11
3.0
 21
135.0
 31
0.0
  0
LINE
  5
18F
100
AcDbEntity
100
AcDbLine
  8
0
 62
256
370
-1
  6
ByLayer
 10
3.0
 20
135.0
 30
0.0
 11
3.9510000000000001
 21
134.3089999999999975
 31
0.0
  0
LINE
  5
190
100
AcDbEntity
100
AcDbLine
  8
0
 62
256
370
-1
  6
ByLayer
 10
3.9510000000000001
 20
134.3089999999999975
 30
0.0
 11
3.851
 21
134.0
 31
0.0
  0
LINE
  5
191
100
AcDbEntity
100
AcDbLine
  8
0
 62
256
370
-1
  6
ByLayer
 10
3.851
 20
134.0
 30
0.0
 11
4.0
 21
134.0
 31
0.0
  0
LINE
  5
192
100
AcDbEntity
100
AcDbLine
  8
0
 62
256
370
-1
  6
ByLayer
 10
4.0
 20
134.0
 30
0.0
 11
4.0
 21
119.0
 31
0.0
  0
LINE
  5
193
100
AcDbEntity
100
AcDbLine
  8
0
 62
256
370
-1
  6
ByLayer
 10
4.0
 20
119.0
 30
0.0
 11
3.851
 21
119.0
 31
0.0
  0
LINE
  5
194
100
AcDbEntity
100
AcDbLine
  8
0
 62
256
370
-1
  6
ByLayer
 10
3.851
 20
119.0
 30
0.0
 11
3.5880000000000001
 21
118.1910000000000025
 31
0.0
  0
LINE
  5
195
100
AcDbEntity
100
AcDbLine
  8
0
 62
256
370
-1
  6
ByLayer
 10
3.5880000000000001
 20
118.1910000000000025
 30
0.0
 11
2.4119999999999999
 21
118.1910000000000025
 31
0.0
  0
LINE
  5
196
100
AcDbEntity
100
AcDbLine
  8
0
 62
256
370
-1
  6
ByLayer
 10
2.4119999999999999
 20
118.1910000000000025
 30
0.0
 11
2.149
 21
119.0
 31
0.0
  0
LINE
  5
197
100
AcDbEntity
100
AcDbLine
  8
0
 62
256
370
-1
  6
ByLayer
 10
2.149
 20
119.0
 30
0.0
 11
0.0
 21
119.0
 31
0.0
  0
LINE
  5
198
100
AcDbEntity
100
AcDbLine
  8
0
 62
256
370
-1
  6
ByLayer
 10
0.0
 20
182.0
 30
0.0
 11
0.0
 21
197.0
 31
0.0
  0
LINE
  5
199
100
AcDbEntity
100
AcDbLine
  8
0
 62
256
370
-1
  6
ByLayer
 10
0.0
 20
197.0
 30
0.0
 11
2.149
 21
197.0
 31
0.0
  0
LINE
  5
19A
100
AcDbEntity
100
AcDbLine
  8
0
 62
256
370
-1
  6
ByLayer
 10
2.149
 20
197.0
 30
0.0
 11
2.4119999999999999
 21
196.1910000000000025
 31
0.0
  0
LINE
  5
19B
100
AcDbEntity
100
AcDbLine
  8
0
 62
256
370
-1
  6
ByLayer
 10
2.4119999999999999
 20
196.1910000000000025
 30
0.0
 11
3.5880000000000001
 21
196.1910000000000025
 31
0.0
  0
LINE
  5
19C
100
AcDbEntity
100
AcDbLine
  8
0
 62
256
370
-1
  6
ByLayer
 10
3.5880000000000001
 20
196.1910000000000025
 30
0.0
 11
3.851
 21
197.0
 31
0.0
  0
LINE
  5
19D
100
AcDbEntity
100
AcDbLine
  8
0
 62
256
370
-1
  6
ByLayer
 10
3.851
 20
197.0
 30
0.0
 11
4.0
 21
197.0
 31
0.0
  0
LINE
  5
19E
100
AcDbEntity
100
AcDbLine
  8
0
 62
256
370
-1
  6
ByLayer
 10
4.0
 20
197.0
 30
0.0
 11
4.0
 21
208.0
 31
0.0
  0
LINE
  5
19F
100
AcDbEntity
100
AcDbLine
  8
0
 62
256
370
-1
  6
ByLayer
 10
4.0
 20
208.0
 30
0.0
 11
123.0
 21
208.0
 31
0.0
  0
LINE
  5
1A0
100
AcDbEntity
100
AcDbLine
  8
0
 62
256
370
-1
  6
ByLayer
 10
123.0
 20
208.0
 30
0.0
 11
123.0
 21
197.0
 31
0.0
  0
LINE
  5
1A1
100
AcDbEntity
100
AcDbLine
  8
0
 62
256
370
-1
  6
ByLayer
 10
123.0
 20
197.0
 30
0.0
 11
120.8509999999999991
 21
197.0
 31
0.0
  0
LINE
  5
1A2
100
AcDbEntity
100
AcDbLine
  8
0
 62
256
370
-1
  6
ByLayer
 10
120.8509999999999991
 20
197.0
 30
0.0
 11
120.5879999999999939
 21
197.8089999999999975
 31
0.0
  0
LINE
  5
1A3
100
AcDbEntity
100
AcDbLine
  8
0
 62
256
370
-1
  6
ByLayer
 10
120.5879999999999939
 20
197.8089999999999975
 30
0.0
 11
119.4120000000000061
 21
197.8089999999999975
 31
0.0
  0
LINE
  5
1A4
100
AcDbEntity
100
AcDbLine
  8
0
 62
256
370
-1
  6
ByLayer
 10
119.4120000000000061
 20
197.8089999999999975
 30
0.0
 11
119.1490000000000009
 21
197.0
 31
0.0
  0
LINE
  5
1A5
100
AcDbEntity
100
AcDbLine
  8
0
 62
256
370
-1
  6
ByLayer
 10
119.1490000000000009
 20
197.0
 30
0.0
 11
119.0
 21
197.0
 31
0.0
  0
LINE
  5
1A6
100
AcDbEntity
100
AcDbLine
  8
0
 62
256
370
-1
  6
ByLayer
 10
119.0
 20
197.0
 30
0.0
 11
119.0
 21
182.0
 31
0.0
  0
LINE
  5
1A7
100
AcDbEntity
100
AcDbLine
  8
0
 62
256
370
-1
  6
ByLayer
 10
119.0
 20
182.0
 30
0.0
 11
119.1490000000000009
 21
182.0
 31
0.0
  0
LINE
  5
1A8
100
AcDbEntity
100
AcDbLine
  8
0
 62
256
370
-1
  6
ByLayer
 10
119.1490000000000009
 20
182.0
 30
0.0
 11
119.0490000000000066
 21
181.6910000000000025
 31
0.0
  0
LINE
  5
1A9
100
AcDbEntity
100
AcDbLine
  8
0
 62
256
370
-1
  6
ByLayer
 10
119.0490000000000066
 20
181.6910000000000025
 30
0.0
 11
120.0
 21
181.0
 31
0.0
  0
LINE
  5
1AA
100
AcDbEntity
100
AcDbLine
  8
0
 62
256
370
-1
  6
ByLayer
 10
120.0
 20
181.0
 30
0.0
 11
120.9509999999999934
 21
181.6910000000000025
 31
0.0
  0
LINE
  5
1AB
100
AcDbEntity
100
AcDbLine
  8
0
 62
256
370
-1
  6
ByLayer
 10
120.9509999999999934
 20
181.6910000000000025
 30
0.0
 11
120.8509999999999991
 21
182.0
 31
0.0
  0
LINE
  5
1AC
100
AcDbEntity
100
AcDbLine
  8
0
 62
256
370
-1
  6
ByLayer
 10
120.8509999999999991
 20
182.0
 30
0.0
 11
123.0
 21
182.0
 31
0.0
  0
LINE
  5
1AD
100
AcDbEntity
100
AcDbLine
  8
0
 62
256
370
-1
  6
ByLayer
 10
123.0
 20
182.0
 30
0.0
 11
123.0
 21
167.0
 31
0.0
  0
LINE
  5
1AE
100
AcDbEntity
100
AcDbLine
  8
0
 62
256
370
-1
  6
ByLayer
 10
123.0
 20
167.0
 30
0.0
 11
94.0
 21
167.0
 31
0.0
  0
LINE
  5
1AF
100
AcDbEntity
100
AcDbLine
  8
0
 62
256
370
-1
  6
ByLayer
 10
94.0
 20
167.0
 30
0.0
 11
94.0
 21
166.8509999999999991
 31
0.0
  0
LINE
  5
1B0
100
AcDbEntity
100
AcDbLine
  8
0
 62
256
370
-1
  6
ByLayer
 10
94.0
 20
166.8509999999999991
 30
0.0
 11
93.6910000000000025
 21
166.9509999999999934
 31
0.0
  0
LINE
  5
1B1
100
AcDbEntity
100
AcDbLine
  8
0
 62
256
370
-1
  6
ByLayer
 10
93.6910000000000025
 20
166.9509999999999934
 30
0.0
 11
93.0
 21
166.0
 31
0.0
  0
LINE
  5
1B2
100
AcDbEntity
100
AcDbLine
  8
0
 62
256
370
-1
  6
ByLayer
 10
93.0
 20
166.0
 30
0.0
 11
93.6910000000000025
 21
165.0490000000000066
 31
0.0
  0
LINE
  5
1B3
100
AcDbEntity
100
AcDbLine
  8
0
 62
256
370
-1
  6
ByLayer
 10
93.6910000000000025
 20
165.0490000000000066
 30
0.0
 11
94.0
 21
165.1490000000000009
 31
0.0
  0
LINE
  5
1B4
100
AcDbEntity
100
AcDbLine
  8
0
 62
256
370
-1
  6
ByLayer
 10
94.0
 20
165.1490000000000009
 30
0.0
 11
94.0
 21
163.0
 31
0.0
  0
LINE
  5
1B5
100
AcDbEntity
100
AcDbLine
  8
0
 62
256
370
-1
  6
ByLayer
 10
94.0
 20
163.0
 30
0.0
 11
79.0
 21
163.0
 31
0.0
  0
LINE
  5
1B6
100
AcDbEntity
100
AcDbLine
  8
0
 62
256
370
-1
  6
ByLayer
 10
79.0
 20
163.0
 30
0.0
 11
79.0
 21
165.1490000000000009
 31
0.0
  0
LINE
  5
1B7
100
AcDbEntity
100
AcDbLine
  8
0
 62
256
370
-1
  6
ByLayer
 10
79.0
 20
165.1490000000000009
 30
0.0
 11
79.8089999999999975
 21
165.4120000000000061
 31
0.0
  0
LINE
  5
1B8
100
AcDbEntity
100
AcDbLine
  8
0
 62
256
370
-1
  6
ByLayer
 10
79.8089999999999975
 20
165.4120000000000061
 30
0.0
 11
79.8089999999999975
 21
166.5879999999999939
 31
0.0
  0
LINE
  5
1B9
100
AcDbEntity
100
AcDbLine
  8
0
 62
256
370
-1
  6
ByLayer
 10
79.8089999999999975
 20
166.5879999999999939
 30
0.0
 11
79.0
 21
166.8509999999999991
 31
0.0
  0
LINE
  5
1BA
100
AcDbEntity
100
AcDbLine
  8
0
 62
256
370
-1
  6
ByLayer
 10
79.0
 20
166.8509999999999991
 30
0.0
 11
79.0
 21
167.0
 31
0.0
  0
LINE
  5
1BB
100
AcDbEntity
100
AcDbLine
  8
0
 62
256
370
-1
  6
ByLayer
 10
79.0
 20
167.0
 30
0.0
 11
69.0
 21
167.0
 31
0.0
  0
LINE
  5
1BC
100
AcDbEntity
100
AcDbLine
  8
0
 62
256
370
-1
  6
ByLayer
 10
69.0
 20
167.0
 30
0.0
 11
69.0
 21
166.8509999999999991
 31
0.0
  0
LINE
  5
1BD
100
AcDbEntity
100
AcDbLine
  8
0
 62
256
370
-1
  6
ByLayer
 10
69.0
 20
166.8509999999999991
 30
0.0
 11
68.6910000000000025
 21
166.9509999999999934
 31
0.0
  0
LINE
  5
1BE
100
AcDbEntity
100
AcDbLine
  8
0
 62
256
370
-1
  6
ByLayer
 10
68.6910000000000025
 20
166.9509999999999934
 30
0.0
 11
68.0
 21
166.0
 31
0.0
  0
LINE
  5
1BF
100
AcDbEntity
100
AcDbLine
  8
0
 62
256
370
-1
  6
ByLayer
 10
68.0
 20
166.0
 30
0.0
 11
68.6910000000000025
 21
165.0490000000000066
 31
0.0
  0
LINE
  5
1C0
100
AcDbEntity
100
AcDbLine
  8
0
 62
256
370
-1
  6
ByLayer
 10
68.6910000000000025
 20
165.0490000000000066
 30
0.0
 11
69.0
 21
165.1490000000000009
 31
0.0
  0
LINE
  5
1C1
100
AcDbEntity
100
AcDbLine
  8
0
 62
256
370
-1
  6
ByLayer
 10
69.0
 20
165.1490000000000009
 30
0.0
 11
69.0
 21
163.0
 31
0.0
  0
LINE
  5
1C2
100
AcDbEntity
100
AcDbLine
  8
0
 62
256
370
-1
  6
ByLayer
 10
69.0
 20
163.0
 30
0.0
 11
54.0
 21
163.0
 31
0.0
  0
LINE
  5
1C3
100
AcDbEntity
100
AcDbLine
  8
0
 62
256
370
-1
  6
ByLayer
 10
54.0
 20
163.0
 30
0.0
 11
54.0
 21
165.1490000000000009
 31
0.0
  0
LINE
  5
1C4
100
AcDbEntity
100
AcDbLine
  8
0
 62
256
370
-1
  6
ByLayer
 10
54.0
 20
165.1490000000000009
 30
0.0
 11
54.8089999999999975
 21
165.4120000000000061
 31
0.0
  0
LINE
  5
1C5
100
AcDbEntity
100
AcDbLine
  8
0
 62
256
370
-1
  6
ByLayer
 10
54.8089999999999975
 20
165.4120000000000061
 30
0.0
 11
54.8089999999999975
 21
166.5879999999999939
 31
0.0
  0
LINE
  5
1C6
100
AcDbEntity
100
AcDbLine
  8
0
 62
256
370
-1
  6
ByLayer
 10
54.8089999999999975
 20
166.5879999999999939
 30
0.0
 11
54.0
 21
166.8509999999999991
 31
0.0
  0
LINE
  5
1C7
100
AcDbEntity
100
AcDbLine
  8
0
 62
256
370
-1
  6
ByLayer
 10
54.0
 20
166.8509999999999991
 30
0.0
 11
54.0
 21
167.0
 31
0.0
  0
LINE
  5
1C8
100
AcDbEntity
100
AcDbLine
  8
0
 62
256
370
-1
  6
ByLayer
 10
54.0
 20
167.0
 30
0.0
 11
44.0
 21
167.0
 31
0.0
  0
LINE
  5
1C9
100
AcDbEntity
100
AcDbLine
  8
0
 62
256
370
-1
  6
ByLayer
 10
44.0
 20
167.0
 30
0.0
 11
44.0
 21
166.8509999999999991
 31
0.0
  0
LINE
  5
1CA
100
AcDbEntity
100
AcDbLine
  8
0
 62
256
370
-1
  6
ByLayer
 10
44.0
 20
166.8509999999999991
 30
0.0
 11
43.6910000000000025
 21
166.9509999999999934
 31
0.0
  0
LINE
  5
1CB
100
AcDbEntity
100
AcDbLine
  8
0
 62
256
370
-1
  6
ByLayer
 10
43.6910000000000025
 20
166.9509999999999934
 30
0.0
 11
43.0
 21
166.0
 31
0.0
  0
LINE
  5
1CC
100
AcDbEntity
100
AcDbLine
  8
0
 62
256
370
-1
  6
ByLayer
 10
43.0
 20
166.0
 30
0.0
 11
43.6910000000000025
 21
165.0490000000000066
 31
0.0
  0
LINE
  5
1CD
100
AcDbEntity
100
AcDbLine
  8
0
 62
256
370
-1
  6
ByLayer
 10
43.6910000000000025
 20
165.0490000000000066
 30
0.0
 11
44.0
 21
165.1490000000000009
 31
0.0
  0
LINE
  5
1CE
100
AcDbEntity
100
AcDbLine
  8
0
 62
256
370
-1
  6
ByLayer
 10
44.0
 20
165.1490000000000009
 30
0.0
 11
44.0
 21
163.0
 31
0.0
  0
LINE
  5
1CF
100
AcDbEntity
100
AcDbLine
  8
0
 62
256
370
-1
  6
ByLayer
 10
44.0
 20
163.0
 30
0.0
 11
29.0
 21
163.0
 31
0.0
  0
LINE
  5
1D0
100
AcDbEntity
100
AcDbLine
  8
0
 62
256
370
-1
  6
ByLayer
 10
29.0
 20
163.0
 30
0.0
 11
29.0
 21
165.1490000000000009
 31
0.0
  0
LINE
  5
1D1
100
AcDbEntity
100
AcDbLine
  8
0
 62
256
370
-1
  6
ByLayer
 10
29.0
 20
165.1490000000000009
 30
0.0
 11
29.8090000000000011
 21
165.4120000000000061
 31
0.0
  0
LINE
  5
1D2
100
AcDbEntity
100
AcDbLine
  8
0
 62
256
370
-1
  6
ByLayer
 10
29.8090000000000011
 20
165.4120000000000061
 30
0.0
 11
29.8090000000000011
 21
166.5879999999999939
 31
0.0
  0
LINE
  5
1D3
100
AcDbEntity
100
AcDbLine
  8
0
 62
256
370
-1
  6
ByLayer
 10
29.8090000000000011
 20
166.5879999999999939
 30
0.0
 11
29.0
 21
166.8509999999999991
 31
0.0
  0
LINE
  5
1D4
100
AcDbEntity
100
AcDbLine
  8
0
 62
256
370
-1
  6
ByLayer
 10
29.0
 20
166.8509999999999991
 30
0.0
 11
29.0
 21
167.0
 31
0.0
  0
LINE
  5
1D5
100
AcDbEntity
100
AcDbLine
  8
0
 62
256
370
-1
  6
ByLayer
 10
29.0
 20
167.0
 30
0.0
 11
4.0
 21
167.0
 31
0.0
  0
LINE
  5
1D6
100
AcDbEntity
100
AcDbLine
  8
0
 62
256
370
-1
  6
ByLayer
 10
4.0
 20
167.0
 30
0.0
 11
4.0
 21
182.0
 31
0.0
  0
LINE
  5
1D7
100
AcDbEntity
100
AcDbLine
  8
0
 62
256
370
-1
  6
ByLayer
 10
4.0
 20
182.0
 30
0.0
 11
3.851
 21
182.0
 31
0.0
  0
LINE
  5
1D8
100
AcDbEntity
100
AcDbLine
  8
0
 62
256
370
-1
  6
ByLayer
 10
3.851
 20
182.0
 30
0.0
 11
3.9510000000000001
 21
182.3089999999999975
 31
0.0
  0
LINE
  5
1D9
100
AcDbEntity
100
AcDbLine
  8
0
 62
256
370
-1
  6
ByLayer
 10
3.9510000000000001
 20
182.3089999999999975
 30
0.0
 11
3.0
 21
183.0
 31
0.0
  0
LINE
  5
1DA
100
AcDbEntity
100
AcDbLine
  8
0
 62
256
370
-1
  6
ByLayer
 10
3.0
 20
183.0
 30
0.0
 11
2.0489999999999999
 21
182.3089999999999975
 31
0.0
  0
LINE
  5
1DB
100
AcDbEntity
100
AcDbLine
  8
0
 62
256
370
-1
  6
ByLayer
 10
2.0489999999999999
 20
182.3089999999999975
 30
0.0
 11
2.149
 21
182.0
 31
0.0
  0
LINE
  5
1DC
100
AcDbEntity
100
AcDbLine
  8
0
 62
256
370
-1
  6
ByLayer
 10
2.149
 20
182.0
 30
0.0
 11
0.0
 21
182.0
 31
0.0
  0
LINE
  5
1DD
100
AcDbEntity
100
AcDbLine
  8
0
 62
256
370
-1
  6
ByLayer
 10
133.0
 20
127.0
 30
0.0
 11
133.0
 21
142.0
 31
0.0
  0
LINE
  5
1DE
100
AcDbEntity
100
AcDbLine
  8
0
 62
256
370
-1
  6
ByLayer
 10
133.0
 20
142.0
 30
0.0
 11
135.1490000000000009
 21
142.0
 31
0.0
  0
LINE
  5
1DF
100
AcDbEntity
100
AcDbLine
  8
0
 62
256
370
-1
  6
ByLayer
 10
135.1490000000000009
 20
142.0
 30
0.0
 11
135.4120000000000061
 21
141.1910000000000025
 31
0.0
  0
LINE
  5
1E0
100
AcDbEntity
100
AcDbLine
  8
0
 62
256
370
-1
  6
ByLayer
 10
135.4120000000000061
 20
141.1910000000000025
 30
0.0
 11
136.5879999999999939
 21
141.1910000000000025
 31
0.0
  0
LINE
  5
1E1
100
AcDbEntity
100
AcDbLine
  8
0
 62
256
370
-1
  6
ByLayer
 10
136.5879999999999939
 20
141.1910000000000025
 30
0.0
 11
136.8509999999999991
 21
142.0
 31
0.0
  0
LINE
  5
1E2
100
AcDbEntity
100
AcDbLine
  8
0
 62
256
370
-1
  6
ByLayer
 10
136.8509999999999991
 20
142.0
 30
0.0
 11
137.0
 21
142.0
 31
0.0
  0
LINE
  5
1E3
100
AcDbEntity
100
AcDbLine
  8
0
 62
256
370
-1
  6
ByLayer
 10
137.0
 20
142.0
 30
0.0
 11
137.0
 21
153.0
 31
0.0
  0
LINE
  5
1E4
100
AcDbEntity
100
AcDbLine
  8
0
 62
256
370
-1
  6
ByLayer
 10
137.0
 20
153.0
 30
0.0
 11
286.0
 21
153.0
 31
0.0
  0
LINE
  5
1E5
100
AcDbEntity
100
AcDbLine
  8
0
 62
256
370
-1
  6
ByLayer
 10
286.0
 20
153.0
 30
0.0
 11
286.0
 21
142.0
 31
0.0
  0
LINE
  5
1E6
100
AcDbEntity
100
AcDbLine
  8
0
 62
256
370
-1
  6
ByLayer
 10
286.0
 20
142.0
 30
0.0
 11
283.8509999999999991
 21
142.0
 31
0.0
  0
LINE
  5
1E7
100
AcDbEntity
100
AcDbLine
  8
0
 62
256
370
-1
  6
ByLayer
 10
283.8509999999999991
 20
142.0
 30
0.0
 11
283.5880000000000223
 21
142.8089999999999975
 31
0.0
  0
LINE
  5
1E8
100
AcDbEntity
100
AcDbLine
  8
0
 62
256
370
-1
  6
ByLayer
 10
283.5880000000000223
 20
142.8089999999999975
 30
0.0
 11
282.4119999999999777
 21
142.8089999999999975
 31
0.0
  0
LINE
  5
1E9
100
AcDbEntity
100
AcDbLine
  8
0
 62
256
370
-1
  6
ByLayer
 10
282.4119999999999777
 20
142.8089999999999975
 30
0.0
 11
282.1490000000000009
 21
142.0
 31
0.0
  0
LINE
  5
1EA
100
AcDbEntity
100
AcDbLine
  8
0
 62
256
370
-1
  6
ByLayer
 10
282.1490000000000009
 20
142.0
 30
0.0
 11
282.0
 21
142.0
 31
0.0
  0
LINE
  5
1EB
100
AcDbEntity
100
AcDbLine
  8
0
 62
256
370
-1
  6
ByLayer
 10
282.0
 20
142.0
 30
0.0
 11
282.0
 21
127.0
 31
0.0
  0
LINE
  5
1EC
100
AcDbEntity
100
AcDbLine
  8
0
 62
256
370
-1
  6
ByLayer
 10
282.0
 20
127.0
 30
0.0
 11
282.1490000000000009
 21
127.0
 31
0.0
  0
LINE
  5
1ED
100
AcDbEntity
100
AcDbLine
  8
0
 62
256
370
-1
  6
ByLayer
 10
282.1490000000000009
 20
127.0
 30
0.0
 11
282.0489999999999782
 21
126.6910000000000025
 31
0.0
  0
LINE
  5
1EE
100
AcDbEntity
100
AcDbLine
  8
0
 62
256
370
-1
  6
ByLayer
 10
282.0489999999999782
 20
126.6910000000000025
 30
0.0
 11
283.0
 21
126.0
 31
0.0
  0
LINE
  5
1EF
100
AcDbEntity
100
AcDbLine
  8
0
 62
256
370
-1
  6
ByLayer
 10
283.0
 20
126.0
 30
0.0
 11
283.9510000000000218
 21
126.6910000000000025
 31
0.0
  0
LINE
  5
1F0
100
AcDbEntity
100
AcDbLine
  8
0
 62
256
370
-1
  6
ByLayer
 10
283.9510000000000218
 20
126.6910000000000025
 30
0.0
 11
283.8509999999999991
 21
127.0
 31
0.0
  0
LINE
  5
1F1
100
AcDbEntity
100
AcDbLine
  8
0
 62
256
370
-1
  6
ByLayer
 10
283.8509999999999991
 20
127.0
 30
0.0
 11
286.0
 21
127.0
 31
0.0
  0
LINE
  5
1F2
100
AcDbEntity
100
AcDbLine
  8
0
 62
256
370
-1
  6
ByLayer
 10
286.0
 20
127.0
 30
0.0
 11
286.0
 21
112.0
 31
0.0
  0
LINE
  5
1F3
100
AcDbEntity
100
AcDbLine
  8
0
 62
256
370
-1
  6
ByLayer
 10
286.0
 20
112.0
 30
0.0
 11
267.0
 21
112.0
 31
0.0
  0
LINE
  5
1F4
100
AcDbEntity
100
AcDbLine
  8
0
 62
256
370
-1
  6
ByLayer
 10
267.0
 20
112.0
 30
0.0
 11
267.0
 21
111.8509999999999991
 31
0.0
  0
LINE
  5
1F5
100
AcDbEntity
100
AcDbLine
  8
0
 62
256
370
-1
  6
ByLayer
 10
267.0
 20
111.8509999999999991
 30
0.0
 11
266.6909999999999741
 21
111.9509999999999934
 31
0.0
  0
LINE
  5
1F6
100
AcDbEntity
100
AcDbLine
  8
0
 62
256
370
-1
  6
ByLayer
 10
266.6909999999999741
 20
111.9509999999999934
 30
0.0
 11
266.0
 21
111.0
 31
0.0
  0
LINE
  5
1F7
100
AcDbEntity
100
AcDbLine
  8
0
 62
256
370
-1
  6
ByLayer
 10
266.0
 20
111.0
 30
0.0
 11
266.6909999999999741
 21
110.0490000000000066
 31
0.0
  0
LINE
  5
1F8
100
AcDbEntity
100
AcDbLine
  8
0
 62
256
370
-1
  6
ByLayer
 10
266.6909999999999741
 20
110.0490000000000066
 30
0.0
 11
267.0
 21
110.1490000000000009
 31
0.0
  0
LINE
  5
1F9
100
AcDbEntity
100
AcDbLine
  8
0
 62
256
370
-1
  6
ByLayer
 10
267.0
 20
110.1490000000000009
 30
0.0
 11
267.0
 21
108.0
 31
0.0
  0
LINE
  5
1FA
100
AcDbEntity
100
AcDbLine
  8
0
 62
256
370
-1
  6
ByLayer
 10
267.0
 20
108.0
 30
0.0
 11
252.0
 21
108.0
 31
0.0
  0
LINE
  5
1FB
100
AcDbEntity
100
AcDbLine
  8
0
 62
256
370
-1
  6
ByLayer
 10
252.0
 20
108.0
 30
0.0
 11
252.0
 21
110.1490000000000009
 31
0.0
  0
LINE
  5
1FC
100
AcDbEntity
100
AcDbLine
  8
0
 62
256
370
-1
  6
ByLayer
 10
252.0
 20
110.1490000000000009
 30
0.0
 11
252.8089999999999975
 21
110.4120000000000061
 31
0.0
  0
LINE
  5
1FD
100
AcDbEntity
100
AcDbLine
  8
0
 62
256
370
-1
  6
ByLayer
 10
252.8089999999999975
 20
110.4120000000000061
 30
0.0
 11
252.8089999999999975
 21
111.5879999999999939
 31
0.0
  0
LINE
  5
1FE
100
AcDbEntity
100
AcDbLine
  8
0
 62
256
370
-1
  6
ByLayer
 10
252.8089999999999975
 20
111.5879999999999939
 30
0.0
 11
252.0
 21
111.8509999999999991
 31
0.0
  0
LINE
  5
1FF
100
AcDbEntity
100
AcDbLine
  8
0
 62
256
370
-1
  6
ByLayer
 10
252.0
 20
111.8509999999999991
 30
0.0
 11
252.0
 21
112.0
 31
0.0
  0
LINE
  5
200
100
AcDbEntity
100
AcDbLine
  8
0
 62
256
370
-1
  6
ByLayer
 10
252.0
 20
112.0
 30
0.0
 11
242.0
 21
112.0
 31
0.0
  0
LINE
  5
201
100
AcDbEntity
100
AcDbLine
  8
0
 62
256
370
-1
  6
ByLayer
 10
242.0
 20
112.0
 30
0.0
 11
242.0
 21
111.8509999999999991
 31
0.0
  0
LINE
  5
202
100
AcDbEntity
100
AcDbLine
  8
0
 62
256
370
-1
  6
ByLayer
 10
242.0
 20
111.8509999999999991
 30
0.0
 11
241.6910000000000025
 21
111.9509999999999934
 31
0.0
  0
LINE
  5
203
100
AcDbEntity
100
AcDbLine
  8
0
 62
256
370
-1
  6
ByLayer
 10
241.6910000000000025
 20
111.9509999999999934
 30
0.0
 11
241.0
 21
111.0
 31
0.0
  0
LINE
  5
204
100
AcDbEntity
100
AcDbLine
  8
0
 62
256
370
-1
  6
ByLayer
 10
241.0
 20
111.0
 30
0.0
 11
241.6910000000000025
 21
110.0490000000000066
 31
0.0
  0
LINE
  5
205
100
AcDbEntity
100
AcDbLine
  8
0
 62
256
370
-1
  6
ByLayer
 10
241.6910000000000025
 20
110.0490000000000066
 30
0.0
 11
242.0
 21
110.1490000000000009
 31
0.0
  0
LINE
  5
206
100
AcDbEntity
100
AcDbLine
  8
0
 62
256
370
-1
  6
ByLayer
 10
242.0
 20
110.1490000000000009
 30
0.0
 11
242.0
 21
108.0
 31
0.0
  0
LINE
  5
207
100
AcDbEntity
100
AcDbLine
  8
0
 62
256
370
-1
  6
ByLayer
 10
242.0
 20
108.0
 30
0.0
 11
227.0
 21
108.0
 31
0.0
  0
LINE
  5
208
100
AcDbEntity
100
AcDbLine
  8
0
 62
256
370
-1
  6
ByLayer
 10
227.0
 20
108.0
 30
0.0
 11
227.0
 21
110.1490000000000009
 31
0.0
  0
LINE
  5
209
100
AcDbEntity
100
AcDbLine
  8
0
 62
256
370
-1
  6
ByLayer
 10
227.0
 20
110.1490000000000009
 30
0.0
 11
227.8089999999999975
 21
110.4120000000000061
 31
0.0
  0
LINE
  5
20A
100
AcDbEntity
100
AcDbLine
  8
0
 62
256
370
-1
  6
ByLayer
 10
227.8089999999999975
 20
110.4120000000000061
 30
0.0
 11
227.8089999999999975
 21
111.5879999999999939
 31
0.0
  0
LINE
  5
20B
100
AcDbEntity
100
AcDbLine
  8
0
 62
256
370
-1
  6
ByLayer
 10
227.8089999999999975
 20
111.5879999999999939
 30
0.0
 11
227.0
 21
111.8509999999999991
 31
0.0
  0
LINE
  5
20C
100
AcDbEntity
100
AcDbLine
  8
0
 62
256
370
-1
  6
ByLayer
 10
227.0
 20
111.8509999999999991
 30
0.0
 11
227.0
 21
112.0
 31
0.0
  0
LINE
  5
20D
100
AcDbEntity
100
AcDbLine
  8
0
 62
256
370
-1
  6
ByLayer
 10
227.0
 20
112.0
 30
0.0
 11
217.0
 21
112.0
 31
0.0
  0
LINE
  5
20E
100
AcDbEntity
100
AcDbLine
  8
0
 62
256
370
-1
  6
ByLayer
 10
217.0
 20
112.0
 30
0.0
 11
217.0
 21
111.8509999999999991
 31
0.0
  0
LINE
  5
20F
100
AcDbEntity
100
AcDbLine
  8
0
 62
256
370
-1
  6
ByLayer
 10
217.0
 20
111.8509999999999991
 30
0.0
 11
216.6910000000000025
 21
111.9509999999999934
 31
0.0
  0
LINE
  5
210
100
AcDbEntity
100
AcDbLine
  8
0
 62
256
370
-1
  6
ByLayer
 10
216.6910000000000025
 20
111.9509999999999934
 30
0.0
 11
216.0
 21
111.0
 31
0.0
  0
LINE
  5
211
100
AcDbEntity
100
AcDbLine
  8
0
 62
256
370
-1
  6
ByLayer
 10
216.0
 20
111.0
 30
0.0
 11
216.6910000000000025
 21
110.0490000000000066
 31
0.0
  0
LINE
  5
212
100
AcDbEntity
100
AcDbLine
  8
0
 62
256
370
-1
  6
ByLayer
 10
216.6910000000000025
 20
110.0490000000000066
 30
0.0
 11
217.0
 21
110.1490000000000009
 31
0.0
  0
LINE
  5
213
100
AcDbEntity
100
AcDbLine
  8
0
 62
256
370
-1
  6
ByLayer
 10
217.0
 20
110.1490000000000009
 30
0.0
 11
217.0
 21
108.0
 31
0.0
  0
LINE
  5
214
100
AcDbEntity
100
AcDbLine
  8
0
 62
256
370
-1
  6
ByLayer
 10
217.0
 20
108.0
 30
0.0
 11
202.0
 21
108.0
 31
0.0
  0
LINE
  5
215
100
AcDbEntity
100
AcDbLine
  8
0
 62
256
370
-1
  6
ByLayer
 10
202.0
 20
108.0
 30
0.0
 11
202.0
 21
110.1490000000000009
 31
0.0
  0
LINE
  5
216
100
AcDbEntity
100
AcDbLine
  8
0
 62
256
370
-1
  6
ByLayer
 10
202.0
 20
110.1490000000000009
 30
0.0
 11
202.8089999999999975
 21
110.4120000000000061
 31
0.0
  0
LINE
  5
217
100
AcDbEntity
100
AcDbLine
  8
0
 62
256
370
-1
  6
ByLayer
 10
202.8089999999999975
 20
110.4120000000000061
 30
0.0
 11
202.8089999999999975
 21
111.5879999999999939
 31
0.0
  0
LINE
  5
218
100
AcDbEntity
100
AcDbLine
  8
0
 62
256
370
-1
  6
ByLayer
 10
202.8089999999999975
 20
111.5879999999999939
 30
0.0
 11
202.0
 21
111.8509999999999991
 31
0.0
  0
LINE
  5
219
100
AcDbEntity
100
AcDbLine
  8
0
 62
256
370
-1
  6
ByLayer
 10
202.0
 20
111.8509999999999991
 30
0.0
 11
202.0
 21
112.0
 31
0.0
  0
LINE
  5
21A
100
AcDbEntity
100
AcDbLine
  8
0
 62
256
370
-1
  6
ByLayer
 10
202.0
 20
112.0
 30
0.0
 11
192.0
 21
112.0
 31
0.0
  0
LINE
  5
21B
100
AcDbEntity
100
AcDbLine
  8
0
 62
256
370
-1
  6
ByLayer
 10
192.0
 20
112.0
 30
0.0
 11
192.0
 21
111.8509999999999991
 31
0.0
  0
LINE
  5
21C
100
AcDbEntity
100
AcDbLine
  8
0
 62
256
370
-1
  6
ByLayer
 10
192.0
 20
111.8509999999999991
 30
0.0
 11
191.6910000000000025
 21
111.9509999999999934
 31
0.0
  0
LINE
  5
21D
100
AcDbEntity
100
AcDbLine
  8
0
 62
256
370
-1
  6
ByLayer
 10
191.6910000000000025
 20
111.9509999999999934
 30
0.0
 11
191.0
 21
111.0
 31
0.0
  0
LINE
  5
21E
100
AcDbEntity
100
AcDbLine
  8
0
 62
256
370
-1
  6
ByLayer
 10
191.0
 20
111.0
 30
0.0
 11
191.6910000000000025
 21
110.0490000000000066
 31
0.0
  0
LINE
  5
21F
100
AcDbEntity
100
AcDbLine
  8
0
 62
256
370
-1
  6
ByLayer
 10
191.6910000000000025
 20
110.0490000000000066
 30
0.0
 11
192.0
 21
110.1490000000000009
 31
0.0
  0
LINE
  5
220
100
AcDbEntity
100
AcDbLine
  8
0
 62
256
370
-1
  6
ByLayer
 10
192.0
 20
110.1490000000000009
 30
0.0
 11
192.0
 21
108.0
 31
0.0
  0
LINE
  5
221
100
AcDbEntity
100
AcDbLine
  8
0
 62
256
370
-1
  6
ByLayer
 10
192.0
 20
108.0
 30
0.0
 11
177.0
 21
108.0
 31
0.0
  0
LINE
  5
222
100
AcDbEntity
100
AcDbLine
  8
0
 62
256
370
-1
  6
ByLayer
 10
177.0
 20
108.0
 30
0.0
 11
177.0
 21
110.1490000000000009
 31
0.0
  0
LINE
  5
223
100
AcDbEntity
100
AcDbLine
  8
0
 62
256
370
-1
  6
ByLayer
 10
177.0
 20
110.1490000000000009
 30
0.0
 11
177.8089999999999975
 21
110.4120000000000061
 31
0.0
  0
LINE
  5
224
100
AcDbEntity
100
AcDbLine
  8
0
 62
256
370
-1
  6
ByLayer
 10
177.8089999999999975
 20
110.4120000000000061
 30
0.0
 11
177.8089999999999975
 21
111.5879999999999939
 31
0.0
  0
LINE
  5
225
100
AcDbEntity
100
AcDbLine
  8
0
 62
256
370
-1
  6
ByLayer
 10
177.8089999999999975
 20
111.5879999999999939
 30
0.0
 11
177.0
 21
111.8509999999999991
 31
0.0
  0
LINE
  5
226
100
AcDbEntity
100
AcDbLine
  8
0
 62
256
370
-1
  6
ByLayer
 10
177.0
 20
111.8509999999999991
 30
0.0
 11
177.0
 21
112.0
 31
0.0
  0
LINE
  5
227
100
AcDbEntity
100
AcDbLine
  8
0
 62
256
370
-1
  6
ByLayer
 10
177.0
 20
112.0
 30
0.0
 11
167.0
 21
112.0
 31
0.0
  0
LINE
  5
228
100
AcDbEntity
100
AcDbLine
  8
0
 62
256
370
-1
  6
ByLayer
 10
167.0
 20
112.0
 30
0.0
 11
167.0
 21
111.8509999999999991
 31
0.0
  0
LINE
  5
229
100
AcDbEntity
100
AcDbLine
  8
0
 62
256
370
-1
  6
ByLayer
 10
167.0
 20
111.8509999999999991
 30
0.0
 11
166.6910000000000025
 21
111.9509999999999934
 31
0.0
  0
LINE
  5
22A
100
AcDbEntity
100
AcDbLine
  8
0
 62
256
370
-1
  6
ByLayer
 10
166.6910000000000025
 20
111.9509999999999934
 30
0.0
 11
166.0
 21
111.0
 31
0.0
  0
LINE
  5
22B
100
AcDbEntity
100
AcDbLine
  8
0
 62
256
370
-1
  6
ByLayer
 10
166.0
 20
111.0
 30
0.0
 11
166.6910000000000025
 21
110.0490000000000066
 31
0.0
  0
LINE
  5
22C
100
AcDbEntity
100
AcDbLine
  8
0
 62
256
370
-1
  6
ByLayer
 10
166.6910000000000025
 20
110.0490000000000066
 30
0.0
 11
167.0
 21
110.1490000000000009
 31
0.0
  0
LINE
  5
22D
100
AcDbEntity
100
AcDbLine
  8
0
 62
256
370
-1
  6
ByLayer
 10
167.0
 20
110.1490000000000009
 30
0.0
 11
167.0
 21
108.0
 31
0.0
  0
LINE
  5
22E
100
AcDbEntity
100
AcDbLine
  8
0
 62
256
370
-1
  6
ByLayer
 10
167.0
 20
108.0
 30
0.0
 11
152.0
 21
108.0
 31
0.0
  0
LINE
  5
22F
100
AcDbEntity
100
AcDbLine
  8
0
 62
256
370
-1
  6
ByLayer
 10
152.0
 20
108.0
 30
0.0
 11
152.0
 21
110.1490000000000009
 31
0.0
  0
LINE
  5
230
100
AcDbEntity
100
AcDbLine
  8
0
 62
256
370
-1
  6
ByLayer
 10
152.0
 20
110.1490000000000009
 30
0.0
 11
152.8089999999999975
 21
110.4120000000000061
 31
0.0
  0
LINE
  5
231
100
AcDbEntity
100
AcDbLine
  8
0
 62
256
370
-1
  6
ByLayer
 10
152.8089999999999975
 20
110.4120000000000061
 30
0.0
 11
152.8089999999999975
 21
111.5879999999999939
 31
0.0
  0
LINE
  5
232
100
AcDbEntity
100
AcDbLine
  8
0
 62
256
370
-1
  6
ByLayer
 10
152.8089999999999975
 20
111.5879999999999939
 30
0.0
 11
152.0
 21
111.8509999999999991
 31
0.0
  0
LINE
  5
233
100
AcDbEntity
100
AcDbLine
  8
0
 62
256
370
-1
  6
ByLayer
 10
152.0
 20
111.8509999999999991
 30
0.0
 11
152.0
 21
112.0
 31
0.0
  0
LINE
  5
234
100
AcDbEntity
100
AcDbLine
  8
0
 62
256
370
-1
  6
ByLayer
 10
152.0
 20
112.0
 30
0.0
 11
137.0
 21
112.0
 31
0.0
  0
LINE
  5
235
100
AcDbEntity
100
AcDbLine
  8
0
 62
256
370
-1
  6
ByLayer
 10
137.0
 20
112.0
 30
0.0
 11
137.0
 21
127.0
 31
0.0
  0
LINE
  5
236
100
AcDbEntity
100
AcDbLine
  8
0
 62
256
370
-1
  6
ByLayer
 10
137.0
 20
127.0
 30
0.0
 11
136.8509999999999991
 21
127.0
 31
0.0
  0
LINE
  5
237
100
AcDbEntity
100
AcDbLine
  8
0
 62
256
370
-1
  6
ByLayer
 10
136.8509999999999991
 20
127.0
 30
0.0
 11
136.9509999999999934
 21
127.3089999999999975
 31
0.0
  0
LINE
  5
238
100
AcDbEntity
100
AcDbLine
  8
0
 62
256
370
-1
  6
ByLayer
 10
136.9509999999999934
 20
127.3089999999999975
 30
0.0
 11
136.0
 21
128.0
 31
0.0
  0
LINE
  5
239
100
AcDbEntity
100
AcDbLine
  8
0
 62
256
370
-1
  6
ByLayer
 10
136.0
 20
128.0
 30
0.0
 11
135.0490000000000066
 21
127.3089999999999975
 31
0.0
  0
LINE
  5
23A
100
AcDbEntity
100
AcDbLine
  8
0
 62
256
370
-1
  6
ByLayer
 10
135.0490000000000066
 20
127.3089999999999975
 30
0.0
 11
135.1490000000000009
 21
127.0
 31
0.0
  0
LINE
  5
23B
100
AcDbEntity
100
AcDbLine
  8
0
 62
256
370
-1
  6
ByLayer
 10
135.1490000000000009
 20
127.0
 30
0.0
 11
133.0
 21
127.0
 31
0.0
  0
LINE
  5
23C
100
AcDbEntity
100
AcDbLine
  8
0
 62
256
370
-1
  6
ByLayer
 10
133.0
 20
182.0
 30
0.0
 11
133.0
 21
197.0
 31
0.0
  0
LINE
  5
23D
100
AcDbEntity
100
AcDbLine
  8
0
 62
256
370
-1
  6
ByLayer
 10
133.0
 20
197.0
 30
0.0
 11
135.1490000000000009
 21
197.0
 31
0.0
  0
LINE
  5
23E
100
AcDbEntity
100
AcDbLine
  8
0
 62
256
370
-1
  6
ByLayer
 10
135.1490000000000009
 20
197.0
 30
0.0
 11
135.4120000000000061
 21
196.1910000000000025
 31
0.0
  0
LINE
  5
23F
100
AcDbEntity
100
AcDbLine
  8
0
 62
256
370
-1
  6
ByLayer
 10
135.4120000000000061
 20
196.1910000000000025
 30
0.0
 11
136.5879999999999939
 21
196.1910000000000025
 31
0.0
  0
LINE
  5
240
100
AcDbEntity
100
AcDbLine
  8
0
 62
256
370
-1
  6
ByLayer
 10
136.5879999999999939
 20
196.1910000000000025
 30
0.0
 11
136.8509999999999991
 21
197.0
 31
0.0
  0
LINE
  5
241
100
AcDbEntity
100
AcDbLine
  8
0
 62
256
370
-1
  6
ByLayer
 10
136.8509999999999991
 20
197.0
 30
0.0
 11
137.0
 21
197.0
 31
0.0
  0
LINE
  5
242
100
AcDbEntity
100
AcDbLine
  8
0
 62
256
370
-1
  6
ByLayer
 10
137.0
 20
197.0
 30
0.0
 11
137.0
 21
208.0
 31
0.0
  0
LINE
  5
243
100
AcDbEntity
100
AcDbLine
  8
0
 62
256
370
-1
  6
ByLayer
 10
137.0
 20
208.0
 30
0.0
 11
286.0
 21
208.0
 31
0.0
  0
LINE
  5
244
100
AcDbEntity
100
AcDbLine
  8
0
 62
256
370
-1
  6
ByLayer
 10
286.0
 20
208.0
 30
0.0
 11
286.0
 21
197.0
 31
0.0
  0
LINE
  5
245
100
AcDbEntity
100
AcDbLine
  8
0
 62
256
370
-1
  6
ByLayer
 10
286.0
 20
197.0
 30
0.0
 11
283.8509999999999991
 21
197.0
 31
0.0
  0
LINE
  5
246
100
AcDbEntity
100
AcDbLine
  8
0
 62
256
370
-1
  6
ByLayer
 10
283.8509999999999991
 20
197.0
 30
0.0
 11
283.5880000000000223
 21
197.8089999999999975
 31
0.0
  0
LINE
  5
247
100
AcDbEntity
100
AcDbLine
  8
0
 62
256
370
-1
  6
ByLayer
 10
283.5880000000000223
 20
197.8089999999999975
 30
0.0
 11
282.4119999999999777
 21
197.8089999999999975
 31
0.0
  0
LINE
  5
248
100
AcDbEntity
100
AcDbLine
  8
0
 62
256
370
-1
  6
ByLayer
 10
282.4119999999999777
 20
197.8089999999999975
 30
0.0
 11
282.1490000000000009
 21
197.0
 31
0.0
  0
LINE
  5
249
100
AcDbEntity
100
AcDbLine
  8
0
 62
256
370
-1
  6
ByLayer
 10
282.1490000000000009
 20
197.0
 30
0.0
 11
282.0
 21
197.0
 31
0.0
  0
LINE
  5
24A
100
AcDbEntity
100
AcDbLine
  8
0
 62
256
370
-1
  6
ByLayer
 10
282.0
 20
197.0
 30
0.0
 11
282.0
 21
182.0
 31
0.0
  0
LINE
  5
24B
100
AcDbEntity
100
AcDbLine
  8
0
 62
256
370
-1
  6
ByLayer
 10
282.0
 20
182.0
 30
0.0
 11
282.1490000000000009
 21
182.0
 31
0.0
  0
LINE
  5
24C
100
AcDbEntity
100
AcDbLine
  8
0
 62
256
370
-1
  6
ByLayer
 10
282.1490000000000009
 20
182.0
 30
0.0
 11
282.0489999999999782
 21
181.6910000000000025
 31
0.0
  0
LINE
  5
24D
100
AcDbEntity
100
AcDbLine
  8
0
 62
256
370
-1
  6
ByLayer
 10
282.0489999999999782
 20
181.6910000000000025
 30
0.0
 11
283.0
 21
181.0
 31
0.0
  0
LINE
  5
24E
100
AcDbEntity
100
AcDbLine
  8
0
 62
256
370
-1
  6
ByLayer
 10
283.0
 20
181.0
 30
0.0
 11
283.9510000000000218
 21
181.6910000000000025
 31
0.0
  0
LINE
  5
24F
100
AcDbEntity
100
AcDbLine
  8
0
 62
256
370
-1
  6
ByLayer
 10
283.9510000000000218
 20
181.6910000000000025
 30
0.0
 11
283.8509999999999991
 21
182.0
 31
0.0
  0
LINE
  5
250
100
AcDbEntity
100
AcDbLine
  8
0
 62
256
370
-1
  6
ByLayer
 10
283.8509999999999991
 20
182.0
 30
0.0
 11
286.0
 21
182.0
 31
0.0
  0
LINE
  5
251
100
AcDbEntity
100
AcDbLine
  8
0
 62
256
370
-1
  6
ByLayer
 10
286.0
 20
182.0
 30
0.0
 11
286.0
 21
167.0
 31
0.0
  0
LINE
  5
252
100
AcDbEntity
100
AcDbLine
  8
0
 62
256
370
-1
  6
ByLayer
 10
286.0
 20
167.0
 30
0.0
 11
267.0
 21
167.0
 31
0.0
  0
LINE
  5
253
100
AcDbEntity
100
AcDbLine
  8
0
 62
256
370
-1
  6
ByLayer
 10
267.0
 20
167.0
 30
0.0
 11
267.0
 21
166.8509999999999991
 31
0.0
  0
LINE
  5
254
100
AcDbEntity
100
AcDbLine
  8
0
 62
256
370
-1
  6
ByLayer
 10
267.0
 20
166.8509999999999991
 30
0.0
 11
266.6909999999999741
 21
166.9509999999999934
 31
0.0
  0
LINE
  5
255
100
AcDbEntity
100
AcDbLine
  8
0
 62
256
370
-1
  6
ByLayer
 10
266.6909999999999741
 20
166.9509999999999934
 30
0.0
 11
266.0
 21
166.0
 31
0.0
  0
LINE
  5
256
100
AcDbEntity
100
AcDbLine
  8
0
 62
256
370
-1
  6
ByLayer
 10
266.0
 20
166.0
 30
0.0
 11
266.6909999999999741
 21
165.0490000000000066
 31
0.0
  0
LINE
  5
257
100
AcDbEntity
100
AcDbLine
  8
0
 62
256
370
-1
  6
ByLayer
 10
266.6909999999999741
 20
165.0490000000000066
 30
0.0
 11
267.0
 21
165.1490000000000009
 31
0.0
  0
LINE
  5
258
100
AcDbEntity
100
AcDbLine
  8
0
 62
256
370
-1
  6
ByLayer
 10
267.0
 20
165.1490000000000009
 30
0.0
 11
267.0
 21
163.0
 31
0.0
  0
LINE
  5
259
100
AcDbEntity
100
AcDbLine
  8
0
 62
256
370
-1
  6
ByLayer
 10
267.0
 20
163.0
 30
0.0
 11
252.0
 21
163.0
 31
0.0
  0
LINE
  5
25A
100
AcDbEntity
100
AcDbLine
  8
0
 62
256
370
-1
  6
ByLayer
 10
252.0
 20
163.0
 30
0.0
 11
252.0
 21
165.1490000000000009
 31
0.0
  0
LINE
  5
25B
100
AcDbEntity
100
AcDbLine
  8
0
 62
256
370
-1
  6
ByLayer
 10
252.0
 20
165.1490000000000009
 30
0.0
 11
252.8089999999999975
 21
165.4120000000000061
 31
0.0
  0
LINE
  5
25C
100
AcDbEntity
100
AcDbLine
  8
0
 62
256
370
-1
  6
ByLayer
 10
252.8089999999999975
 20
165.4120000000000061
 30
0.0
 11
252.8089999999999975
 21
166.5879999999999939
 31
0.0
  0
LINE
  5
25D
100
AcDbEntity
100
AcDbLine
  8
0
 62
256
370
-1
  6
ByLayer
 10
252.8089999999999975
 20
166.5879999999999939
 30
0.0
 11
252.0
 21
166.8509999999999991
 31
0.0
  0
LINE
  5
25E
100
AcDbEntity
100
AcDbLine
  8
0
 62
256
370
-1
  6
ByLayer
 10
252.0
 20
166.8509999999999991
 30
0.0
 11
252.0
 21
167.0
 31
0.0
  0
LINE
  5
25F
100
AcDbEntity
100
AcDbLine
  8
0
 62
256
370
-1
  6
ByLayer
 10
252.0
 20
167.0
 30
0.0
 11
242.0
 21
167.0
 31
0.0
  0
LINE
  5
260
100
AcDbEntity
100
AcDbLine
  8
0
 62
256
370
-1
  6
ByLayer
 10
242.0
 20
167.0
 30
0.0
 11
242.0
 21
166.8509999999999991
 31
0.0
  0
LINE
  5
261
100
AcDbEntity
100
AcDbLine
  8
0
 62
256
370
-1
  6
ByLayer
 10
242.0
 20
166.8509999999999991
 30
0.0
 11
241.6910000000000025
 21
166.9509999999999934
 31
0.0
  0
LINE
  5
262
100
AcDbEntity
100
AcDbLine
  8
0
 62
256
370
-1
  6
ByLayer
 10
241.6910000000000025
 20
166.9509999999999934
 30
0.0
 11
241.0
 21
166.0
 31
0.0
  0
LINE
  5
263
100
AcDbEntity
100
AcDbLine
  8
0
 62
256
370
-1
  6
ByLayer
 10
241.0
 20
166.0
 30
0.0
 11
241.6910000000000025
 21
165.0490000000000066
 31
0.0
  0
LINE
  5
264
100
AcDbEntity
100
AcDbLine
  8
0
 62
256
370
-1
  6
ByLayer
 10
241.6910000000000025
 20
165.0490000000000066
 30
0.0
 11
242.0
 21
165.1490000000000009
 31
0.0
  0
LINE
  5
265
100
AcDbEntity
100
AcDbLine
  8
0
 62
256
370
-1
  6
ByLayer
 10
242.0
 20
165.1490000000000009
 30
0.0
 11
242.0
 21
163.0
 31
0.0
  0
LINE
  5
266
100
AcDbEntity
100
AcDbLine
  8
0
 62
256
370
-1
  6
ByLayer
 10
242.0
 20
163.0
 30
0.0
 11
227.0
 21
163.0
 31
0.0
  0
LINE
  5
267
100
AcDbEntity
100
AcDbLine
  8
0
 62
256
370
-1
  6
ByLayer
 10
227.0
 20
163.0
 30
0.0
 11
227.0
 21
165.1490000000000009
 31
0.0
  0
LINE
  5
268
100
AcDbEntity
100
AcDbLine
  8
0
 62
256
370
-1
  6
ByLayer
 10
227.0
 20
165.1490000000000009
 30
0.0
 11
227.8089999999999975
 21
165.4120000000000061
 31
0.0
  0
LINE
  5
269
100
AcDbEntity
100
AcDbLine
  8
0
 62
256
370
-1
  6
ByLayer
 10
227.8089999999999975
 20
165.4120000000000061
 30
0.0
 11
227.8089999999999975
 21
166.5879999999999939
 31
0.0
  0
LINE
  5
26A
100
AcDbEntity
100
AcDbLine
  8
0
 62
256
370
-1
  6
ByLayer
 10
227.8089999999999975
 20
166.5879999999999939
 30
0.0
 11
227.0
 21
166.8509999999999991
 31
0.0
  0
LINE
  5
26B
100
AcDbEntity
100
AcDbLine
  8
0
 62
256
370
-1
  6
ByLayer
 10
227.0
 20
166.8509999999999991
 30
0.0
 11
227.0
 21
167.0
 31
0.0
  0
LINE
  5
26C
100
AcDbEntity
100
AcDbLine
  8
0
 62
256
370
-1
  6
ByLayer
 10
227.0
 20
167.0
 30
0.0
 11
217.0
 21
167.0
 31
0.0
  0
LINE
  5
26D
100
AcDbEntity
100
AcDbLine
  8
0
 62
256
370
-1
  6
ByLayer
 10
217.0
 20
167.0
 30
0.0
 11
217.0
 21
166.8509999999999991
 31
0.0
  0
LINE
  5
26E
100
AcDbEntity
100
AcDbLine
  8
0
 62
256
370
-1
  6
ByLayer
 10
217.0
 20
166.8509999999999991
 30
0.0
 11
216.6910000000000025
 21
166.9509999999999934
 31
0.0
  0
LINE
  5
26F
100
AcDbEntity
100
AcDbLine
  8
0
 62
256
370
-1
  6
ByLayer
 10
216.6910000000000025
 20
166.9509999999999934
 30
0.0
 11
216.0
 21
166.0
 31
0.0
  0
LINE
  5
270
100
AcDbEntity
100
AcDbLine
  8
0
 62
256
370
-1
  6
ByLayer
 10
216.0
 20
166.0
 30
0.0
 11
216.6910000000000025
 21
165.0490000000000066
 31
0.0
  0
LINE
  5
271
100
AcDbEntity
100
AcDbLine
  8
0
 62
256
370
-1
  6
ByLayer
 10
216.6910000000000025
 20
165.0490000000000066
 30
0.0
 11
217.0
 21
165.1490000000000009
 31
0.0
  0
LINE
  5
272
100
AcDbEntity
100
AcDbLine
  8
0
 62
256
370
-1
  6
ByLayer
 10
217.0
 20
165.1490000000000009
 30
0.0
 11
217.0
 21
163.0
 31
0.0
  0
LINE
  5
273
100
AcDbEntity
100
AcDbLine
  8
0
 62
256
370
-1
  6
ByLayer
 10
217.0
 20
163.0
 30
0.0
 11
202.0
 21
163.0
 31
0.0
  0
LINE
  5
274
100
AcDbEntity
100
AcDbLine
  8
0
 62
256
370
-1
  6
ByLayer
 10
202.0
 20
163.0
 30
0.0
 11
202.0
 21
165.1490000000000009
 31
0.0
  0
LINE
  5
275
100
AcDbEntity
100
AcDbLine
  8
0
 62
256
370
-1
  6
ByLayer
 10
202.0
 20
165.1490000000000009
 30
0.0
 11
202.8089999999999975
 21
165.4120000000000061
 31
0.0
  0
LINE
  5
276
100
AcDbEntity
100
AcDbLine
  8
0
 62
256
370
-1
  6
ByLayer
 10
202.8089999999999975
 20
165.4120000000000061
 30
0.0
 11
202.8089999999999975
 21
166.5879999999999939
 31
0.0
  0
LINE
  5
277
100
AcDbEntity
100
AcDbLine
  8
0
 62
256
370
-1
  6
ByLayer
 10
202.8089999999999975
 20
166.5879999999999939
 30
0.0
 11
202.0
 21
166.8509999999999991
 31
0.0
  0
LINE
  5
278
100
AcDbEntity
100
AcDbLine
  8
0
 62
256
370
-1
  6
ByLayer
 10
202.0
 20
166.8509999999999991
 30
0.0
 11
202.0
 21
167.0
 31
0.0
  0
LINE
  5
279
100
AcDbEntity
100
AcDbLine
  8
0
 62
256
370
-1
  6
ByLayer
 10
202.0
 20
167.0
 30
0.0
 11
192.0
 21
167.0
 31
0.0
  0
LINE
  5
27A
100
AcDbEntity
100
AcDbLine
  8
0
 62
256
370
-1
  6
ByLayer
 10
192.0
 20
167.0
 30
0.0
 11
192.0
 21
166.8509999999999991
 31
0.0
  0
LINE
  5
27B
100
AcDbEntity
100
AcDbLine
  8
0
 62
256
370
-1
  6
ByLayer
 10
192.0
 20
166.8509999999999991
 30
0.0
 11
191.6910000000000025
 21
166.9509999999999934
 31
0.0
  0
LINE
  5
27C
100
AcDbEntity
100
AcDbLine
  8
0
 62
256
370
-1
  6
ByLayer
 10
191.6910000000000025
 20
166.9509999999999934
 30
0.0
 11
191.0
 21
166.0
 31
0.0
  0
LINE
  5
27D
100
AcDbEntity
100
AcDbLine
  8
0
 62
256
370
-1
  6
ByLayer
 10
191.0
 20
166.0
 30
0.0
 11
191.6910000000000025
 21
165.0490000000000066
 31
0.0
  0
LINE
  5
27E
100
AcDbEntity
100
AcDbLine
  8
0
 62
256
370
-1
  6
ByLayer
 10
191.6910000000000025
 20
165.0490000000000066
 30
0.0
 11
192.0
 21
165.1490000000000009
 31
0.0
  0
LINE
  5
27F
100
AcDbEntity
100
AcDbLine
  8
0
 62
256
370
-1
  6
ByLayer
 10
192.0
 20
165.1490000000000009
 30
0.0
 11
192.0
 21
163.0
 31
0.0
  0
LINE
  5
280
100
AcDbEntity
100
AcDbLine
  8
0
 62
256
370
-1
  6
ByLayer
 10
192.0
 20
163.0
 30
0.0
 11
177.0
 21
163.0
 31
0.0
  0
LINE
  5
281
100
AcDbEntity
100
AcDbLine
  8
0
 62
256
370
-1
  6
ByLayer
 10
177.0
 20
163.0
 30
0.0
 11
177.0
 21
165.1490000000000009
 31
0.0
  0
LINE
  5
282
100
AcDbEntity
100
AcDbLine
  8
0
 62
256
370
-1
  6
ByLayer
 10
177.0
 20
165.1490000000000009
 30
0.0
 11
177.8089999999999975
 21
165.4120000000000061
 31
0.0
  0
LINE
  5
283
100
AcDbEntity
100
AcDbLine
  8
0
 62
256
370
-1
  6
ByLayer
 10
177.8089999999999975
 20
165.4120000000000061
 30
0.0
 11
177.8089999999999975
 21
166.5879999999999939
 31
0.0
  0
LINE
  5
284
100
AcDbEntity
100
AcDbLine
  8
0
 62
256
370
-1
  6
ByLayer
 10
177.8089999999999975
 20
166.5879999999999939
 30
0.0
 11
177.0
 21
166.8509999999999991
 31
0.0
  0
LINE
  5
285
100
AcDbEntity
100
AcDbLine
  8
0
 62
256
370
-1
  6
ByLayer
 10
177.0
 20
166.8509999999999991
 30
0.0
 11
177.0
 21
167.0
 31
0.0
  0
LINE
  5
286
100
AcDbEntity
100
AcDbLine
  8
0
 62
256
370
-1
  6
ByLayer
 10
177.0
 20
167.0
 30
0.0
 11
167.0
 21
167.0
 31
0.0
  0
LINE
  5
287
100
AcDbEntity
100
AcDbLine
  8
0
 62
256
370
-1
  6
ByLayer
 10
167.0
 20
167.0
 30
0.0
 11
167.0
 21
166.8509999999999991
 31
0.0
  0
LINE
  5
288
100
AcDbEntity
100
AcDbLine
  8
0
 62
256
370
-1
  6
ByLayer
 10
167.0
 20
166.8509999999999991
 30
0.0
 11
166.6910000000000025
 21
166.9509999999999934
 31
0.0
  0
LINE
  5
289
100
AcDbEntity
100
AcDbLine
  8
0
 62
256
370
-1
  6
ByLayer
 10
166.6910000000000025
 20
166.9509999999999934
 30
0.0
 11
166.0
 21
166.0
 31
0.0
  0
LINE
  5
28A
100
AcDbEntity
100
AcDbLine
  8
0
 62
256
370
-1
  6
ByLayer
 10
166.0
 20
166.0
 30
0.0
 11
166.6910000000000025
 21
165.0490000000000066
 31
0.0
  0
LINE
  5
28B
100
AcDbEntity
100
AcDbLine
  8
0
 62
256
370
-1
  6
ByLayer
 10
166.6910000000000025
 20
165.0490000000000066
 30
0.0
 11
167.0
 21
165.1490000000000009
 31
0.0
  0
LINE
  5
28C
100
AcDbEntity
100
AcDbLine
  8
0
 62
256
370
-1
  6
ByLayer
 10
167.0
 20
165.1490000000000009
 30
0.0
 11
167.0
 21
163.0
 31
0.0
  0
LINE
  5
28D
100
AcDbEntity
100
AcDbLine
  8
0
 62
256
370
-1
  6
ByLayer
 10
167.0
 20
163.0
 30
0.0
 11
152.0
 21
163.0
 31
0.0
  0
LINE
  5
28E
100
AcDbEntity
100
AcDbLine
  8
0
 62
256
370
-1
  6
ByLayer
 10
152.0
 20
163.0
 30
0.0
 11
152.0
 21
165.1490000000000009
 31
0.0
  0
LINE
  5
28F
100
AcDbEntity
100
AcDbLine
  8
0
 62
256
370
-1
  6
ByLayer
 10
152.0
 20
165.1490000000000009
 30
0.0
 11
152.8089999999999975
 21
165.4120000000000061
 31
0.0
  0
LINE
  5
290
100
AcDbEntity
100
AcDbLine
  8
0
 62
256
370
-1
  6
ByLayer
 10
152.8089999999999975
 20
165.4120000000000061
 30
0.0
 11
152.8089999999999975
 21
166.5879999999999939
 31
0.0
  0
LINE
  5
291
100
AcDbEntity
100
AcDbLine
  8
0
 62
256
370
-1
  6
ByLayer
 10
152.8089999999999975
 20
166.5879999999999939
 30
0.0
 11
152.0
 21
166.8509999999999991
 31
0.0
  0
LINE
  5
292
100
AcDbEntity
100
AcDbLine
  8
0
 62
256
370
-1
  6
ByLayer
 10
152.0
 20
166.8509999999999991
 30
0.0
 11
152.0
 21
167.0
 31
0.0
  0
LINE
  5
293
100
AcDbEntity
100
AcDbLine
  8
0
 62
256
370
-1
  6
ByLayer
 10
152.0
 20
167.0
 30
0.0
 11
137.0
 21
167.0
 31
0.0
  0
LINE
  5
294
100
AcDbEntity
100
AcDbLine
  8
0
 62
256
370
-1
  6
ByLayer
 10
137.0
 20
167.0
 30
0.0
 11
137.0
 21
182.0
 31
0.0
  0
LINE
  5
295
100
AcDbEntity
100
AcDbLine
  8
0
 62
256
370
-1
  6
ByLayer
 10
137.0
 20
182.0
 30
0.0
 11
136.8509999999999991
 21
182.0
 31
0.0
  0
LINE
  5
296
100
AcDbEntity
100
AcDbLine
  8
0
 62
256
370
-1
  6
ByLayer
 10
136.8509999999999991
 20
182.0
 30
0.0
 11
136.9509999999999934
 21
182.3089999999999975
 31
0.0
  0
LINE
  5
297
100
AcDbEntity
100
AcDbLine
  8
0
 62
256
370
-1
  6
ByLayer
 10
136.9509999999999934
 20
182.3089999999999975
 30
0.0
 11
136.0
 21
183.0
 31
0.0
  0
LINE
  5
298
100
AcDbEntity
100
AcDbLine
  8
0
 62
256
370
-1
  6
ByLayer
 10
136.0
 20
183.0
 30
0.0
 11
135.0490000000000066
 21
182.3089999999999975
 31
0.0
  0
LINE
  5
299
100
AcDbEntity
100
AcDbLine
  8
0
 62
256
370
-1
  6
ByLayer
 10
135.0490000000000066
 20
182.3089999999999975
 30
0.0
 11
135.1490000000000009
 21
182.0
 31
0.0
  0
LINE
  5
29A
100
AcDbEntity
100
AcDbLine
  8
0
 62
256
370
-1
  6
ByLayer
 10
135.1490000000000009
 20
182.0
 30
0.0
 11
133.0
 21
182.0
 31
0.0
  0
ENDSEC
  0
SECTION
  2
OBJECTS
  0
DICTIONARY
  5
C
100
AcDbDictionary
280
0
281
1
  3
ACAD_GROUP
350
D
  3
ACAD_LAYOUT
350
1A
  3
ACAD_MLINESTYLE
350
17
  3
ACAD_PLOTSETTINGS
350
19
  3
ACAD_PLOTSTYLENAME
350
E
  3
AcDbVariableDictionary
350
29B
  0
DICTIONARY
  5
D
100
AcDbDictionary
280
0
281
1
  0
ACDBDICTIONARYWDFLT
  5
E
100
AcDbDictionary
281
1
  3
Normal
350
F
100
AcDbDictionaryWithDefault
340
F
  0
ACDBPLACEHOLDER
  5
F
  0
DICTIONARY
  5
17
100
AcDbDictionary
280
0
281
1
  3
Standard
350
18
  0
MLINESTYLE
  5
18
100
AcDbMlineStyle
  2
STANDARD
 70
0
  3

 62
256
 51
90.0
 52
90.0
 71
2
 49
0.5
 62
256
  6
BYLAYER
 49
-0.5
 62
256
  6
BYLAYER
  0
DICTIONARY
  5
19
100
AcDbDictionary
280
0
281
1
  0
DICTIONARY
  5
1A
100
AcDbDictionary
281
1
  3
Layout1
350
1E
  3
Layout2
350
26
  3
Model
350
22
  0
LAYOUT
  5
1E
100
AcDbPlotSettings
  1

  2
C:\Program Files\AutoCAD 2002\plotters\DWF ePlot (optimized for plotting).pc3
  4

  6

 40
0.0
 41
0.0
 42
0.0
 43
0.0
 44
0.0
 45
0.0
 46
0.0
 47
0.0
 48
0.0
 49
0.0
140
0.0
141
0.0
142
1.0
143
1.0
 70
688
 72
0
 73
0
 74
5
  7

 75
16
147
1.0
148
0.0
149
0.0
100
AcDbLayout
  1
Layout1
 70
1
 71
1
 10
0.0
 20
0.0
 11
420.0
 21
297.0
 12
0.0
 22
0.0
 32
0.0
 14
100000000000000000000.0
 24
100000000000000000000.0
 34
100000000000000000000.0
 15
-100000000000000000000.0
 25
-100000000000000000000.0
 35
-100000000000000000000.0
146
0.0
 13
0.0
 23
0.0
 33
0.0
 16
1.0
 26
0.0
 36
0.0
 17
0.0
 27
1.0
 37
0.0
 76
0
330
1B
  0
LAYOUT
  5
22
100
AcDbPlotSettings
  1

  2
C:\Program Files\AutoCAD 2002\plotters\DWF ePlot (optimized for plotting).pc3
  4

  6

 40
0.0
 41
0.0
 42
0.0
 43
0.0
 44
0.0
 45
0.0
 46
0.0
 47
0.0
 48
0.0
 49
0.0
140
0.0
141
0.0
142
1.0
143
1.0
 70
1712
 72
0
 73
0
 74
0
  7

 75
0
147
1.0
148
0.0
149
0.0
100
AcDbLayout
  1
Model
 70
1
 71
0
 10
0.0
 20
0.0
 11
12.0
 21
9.0
 12
0.0
 22
0.0
 32
0.0
 14
0.0
 24
0.0
 34
0.0
 15
0.0
 25
0.0
 35
0.0
146
0.0
 13
0.0
 23
0.0
 33
0.0
 16
1.0
 26
0.0
 36
0.0
 17
0.0
 27
1.0
 37
0.0
 76
0
330
1F
  0
LAYOUT
  5
26
100
AcDbPlotSettings
  1

  2
C:\Program Files\AutoCAD 2002\plotters\DWF ePlot (optimized for plotting).pc3
  4

  6

 40
0.0
 41
0.0
 42
0.0
 43
0.0
 44
0.0
 45
0.0
 46
0.0
 47
0.0
 48
0.0
 49
0.0
140
0.0
141
0.0
142
1.0
143
1.0
 70
688
 72
0
 73
0
 74
5
  7

 75
16
147
1.0
148
0.0
149
0.0
100
AcDbLayout
  1
Layout2
 70
1
 71
2
 10
0.0
 20
0.0
 11
12.0
 21
9.0
 12
0.0
 22
0.0
 32
0.0
 14
0.0
 24
0.0
 34
0.0
 15
0.0
 25
0.0
 35
0.0
146
0.0
 13
0.0
 23
0.0
 33
0.0
 16
1.0
 26
0.0
 36
0.0
 17
0.0
 27
1.0
 37
0.0
 76
0
330
23
  0
DICTIONARY
  5
29B
100
AcDbDictionary
281
1
  3
DIMASSOC
350
29D
  3
HIDETEXT
350
29C
  0
DICTIONARYVAR
  5
29C
100
DictionaryVariables
280
0
  1
2
  0
DICTIONARYVAR
  5
29D
100
DictionaryVariables
280
0
  1
1
  0
ENDSEC
  0
EOF
